<svg xmlns="http://www.w3.org/2000/svg" xml:space="preserve" viewBox="0 0 251 252"><path fill="#F4F5FB" d="M1 252c0-4.025 0-8.05.367-12.6 3.115-8.157 5.863-15.792 8.813-23.625.366-.724.53-1.25.9-2.066a5902 5902 0 0 0 13.874-27.403l-.929-1.303L1 195c0-1.067 0-2.133.346-3.7a46 46 0 0 0 1.79-5.193c-.049-.016-.013.08.351.043 1.183-1.391 2.105-2.694 2.801-4.108 5.045-10.248 9.909-20.589 15.118-30.753 2.413-4.708 7.642-9.09 7.637-13.614-.006-4.715-4.912-9.354-7.444-14.148-7.797-14.768-15.784-29.48-17.766-46.9-2.309-13.434-.988-26.118 3.324-38.54-.052-.006.007.08.302-.093 2.069-3.429 3.842-6.684 5.583-9.97-.034-.029.02.04.311-.085.896-1.372 1.502-2.62 2.418-4.043.43-.38.551-.585.903-.83.48-.264.6-.544.855-.982.72-.679 1.178-1.255 1.906-1.898.454-.369.638-.67 1.145-1.077 4.006-2.506 7.69-4.908 11.744-7.339 14.26-6.096 28.74-7.61 43.293-3.765 11.648 3.077 22.923 7.564 34.579 11.65 1.024.271 1.833.318 2.783.735 2.413.534 4.997 1.488 6.902.73 12.126-4.82 24.102-10.019 36.535-15.053 14.976-3.852 29.695-4.525 44.833-1.77 17.5 4.074 30.312 13.944 39.496 29.182.659 1.5 1.271 2.67 1.946 4.16.391.873.721 1.422 1.028 2.09-.022.118.17.265.156.64.625 1.98 1.262 3.584 1.86 5.32-.038.132.161.322.158.736.69 4.637 2.038 8.875 1.947 13.081-.219 10.163-1.11 20.312-1.836 30.871-.79 4.086-1.473 7.766-2.51 11.523-3.102 6.72-5.849 13.362-8.89 20.19-1.807 3.073-3.552 5.868-4.733 8.884-.607 1.55-.759 3.718-.149 5.213 1.401 3.436 3.395 6.63 5.176 10.226.307.802.587 1.302.92 2.169 2.676 7.596 5.297 14.826 7.887 22.162-.032.107.124.265.097.689.7 4.138 1.425 7.852 2.11 12.033.802 12.165-.036 23.627-4.895 34.904-.774 2.102-1.47 3.838-2.478 5.606a8 8 0 0 0-1.71 1.894c.061.027-.01-.086-.3.081-2.068 2.431-3.847 4.695-5.907 7.085-1.113 1.018-1.944 1.91-3.012 2.886-.437.344-.637.603-1.138.963-1.073.81-1.846 1.52-2.804 2.257-.451.113-.607.294-1.007.666-7.71 5.15-15.938 7.923-24.916 9.363-.421.012-.585.074-1.165.081-1.23.116-2.042.286-3.281.378-3.647-.066-6.866-.054-10.515-.203-4.194-.591-7.958-1.021-12.044-1.623-1.978-.555-3.635-.94-5.552-1.497-1.263-.428-2.267-.683-3.607-1.111-2.024-.584-3.712-.996-5.639-1.663-1.808-.69-3.377-1.126-4.943-1.542.002.02.04.005-.138-.266-.997-.502-1.815-.733-2.798-1.219-.749-.395-1.332-.536-2.122-.952-2.334-1.159-4.46-2.043-6.789-3.137-.75-.395-1.3-.58-2.026-.996-.725-.409-1.274-.586-2.004-1.005-.566-.349-.951-.456-1.475-.746-.563-.333-.987-.483-1.589-.92-.8-.515-1.422-.744-2.216-1.261-4.712-3.018-9.215-5.814-13.82-8.43-1.125-.64-3.003-1.397-3.824-.908-8.534 5.087-16.922 10.418-25.73 15.716-3.118 1.355-5.857 2.676-8.952 4.029-2.14.931-3.923 1.83-6.104 2.8-5.093 1.467-9.79 2.864-14.465 4.271.02.01.056.035.018-.34 3.286-8.01 6.609-15.647 10.551-24.707-5.415 3.18-9.486 5.569-13.803 7.982-.616.057-.862.248-.993.633-.007.035-.077.039-.41.112-2.084 1.043-3.837 2.013-5.614 2.994-.024.011-.076-.006-.36.029-.771.321-1.259.608-2.043.957-.97.49-1.642.917-2.654 1.328-1.47.65-2.601 1.313-3.704 2.007.027.03.027-.051-.313-.056-.536.113-.731.23-1.112.34-.456.067-.618.242-1.002.519-1.076.333-1.823.664-2.928 1.101C21.814 245.316 11.407 248.658 1 252m196.012-93.985s.034.069.57-.047c.161-.313.321-.626.422-.965 0 0 .027.06.559-.065.166-.307.331-.613.439-.936 0 0 .029.053.58-.088.305-.472.61-.944.89-1.498 0 0 .085-.008.615-.312.693-.997 1.385-1.995 1.985-3.04 0 0 .032.099.55-.085.132-.33.264-.66.37-.985 0 0 .003.026.593-.24.838-1.234 1.675-2.467 2.434-3.74 0 0 .04.077.637-.155.653-1.29 1.307-2.581 2.32-4.2 0 0 .145-.464.795-.67.148-.597.295-1.193.935-1.962.483-.495.966-.99 2.044-1.851.93-1.524 1.86-3.048 2.822-4.69 0 0 .066-.103.552-.521 4.856-10.326 9.713-20.653 15.053-31.567 5.55-16.381 8.166-33.006 3.815-50.115-.472-1.859-1.935-3.466-2.899-5.918-.351-1.11-.703-2.218-.893-3.972-.355-.518-.709-1.036-1.114-1.457 0 0 .108.008.078-.622-.362-.478-.724-.955-1.126-1.341 0 0 .09-.043.003-.737-2.98-3.444-5.961-6.888-9.11-10.82-.299-.152-.596-.304-1.187-1.061-1.196-.503-2.39-1.006-3.711-1.962 0 0-.273-.382-.383-.921-.49-.225-.981-.45-1.9-1.22-12.232-7.632-25.884-7.64-39.476-6.736-11.332.754-22.214 3.896-33.11 9.278-2.385 1.107-4.77 2.213-7.867 3.218-2.837 1.577-5.674 3.154-9.094 4.825-.445.34-.89.682-2.02 1.169-6.118 4.286-12.235 8.571-18.243 12.917 0 0-.06-.11-.684.003a92 92 0 0 0-2.254 2.08s-.005-.038-.664.114c-2.494 2.255-4.988 4.51-7.407 6.81 0 0 .006-.089-.605.033-.227.342-.454.683-1.018 1.091-.223.119-.34.305-.933.789-.206.345-.413.69-.502 1.038 0 0-.044-.11-.696.078-3.459 3.637-6.918 7.275-10.273 10.936 0 0-.015-.105-.552.065-.169.324-.337.648-.406.976 0 0-.069-.073-.594-.002-.194.28-.387.561-1.158 1.178l-8.161 9.712c9.097-1.103 16.95-2.058 24.805-3.005 1.5-.181 3.98-1.3 1.51 2.146-.19.264-.381.529-1.032.97 0 0-.284.403-.822.737-2.854 2.756-5.707 5.511-9.096 8.496-.495.584-.99 1.169-2.009 1.965-.334.453-.667.906-1.421 1.607-.274.194-.476.446-.952.924-.218.149-.383.342-.995.917-.332.479-.664.957-1.527 1.805-1.525 1.777-3.05 3.554-5.137 5.606-.708.355-1.416.71-2.311.415-.764-1.341-1.527-2.683-2.186-4.726-.592-.576-1.184-1.152-1.972-2.208-.07-.337-.139-.674-.02-1.806a113 113 0 0 0-3.384-4.018c-.153-.552-.306-1.104-.423-2.319.018-.442.035-.885.57-1.869.366-3.227 1.903-6.933.824-9.57-1.596-3.9-1.202-6.083 2.087-8.331.715-.49 1.31-2.142 1.01-2.865-.327-.785-1.71-1.416-2.72-1.581-3.168-.519-6.377-.787-9.703-1.936 0-1.058 0-2.116.61-3.48 1.094-.237 2.187-.473 3.969-.387 3.802.76 7.68 1.258 11.387 2.346 5.003 1.468 8.127-.287 9.73-5.813 0 0-.095-.158.641-.006 4.897-4.088 9.834-8.13 14.642-12.32.609-.53.543-1.835 1.049-3.279.605-.413 1.21-.826 2.236-1.373.27-.14.472-.347 1.071-1.04.836-.61 1.67-1.218 3.292-1.82l5.135-2.772c-.643-.733-1.287-1.466-1.904-2.235 0 0-.015.036-.23-.435-.297-.158-.594-.316-.815-.436 0 0-.07.048-.082-.682-.417-.458-.76-1.032-1.263-1.358-9.61-6.23-20.533-8.369-31.426-10.834 1.965-.24 3.927-.515 5.897-.706 1.377-.134 2.766-.152 5.235-.276-5.964-3.103-10.872-3.532-15.662-1.128-1.48.743-2.448 2.503-4.304 3.935-.443-.02-.887-.04-1.662-.557-.557-.175-1.114-.35-2.145-1.056a89 89 0 0 1-5.396.555c-3.376.325-6.751.649-10.245.275l-6.949-4.143c.521 3.395.786 5.12.43 7.17-1.717.866-3.729 1.418-5.08 2.677-1.73 1.613-2.928 3.797-4.795 6.162-.774.636-1.547 1.271-3.039 1.918-2.614 3.266-5.02 6.73-7.889 9.756-4.953 5.224-3.666 11.173-2.517 18.089 0 3.01 0 6.018-.579 9.58-.393 3.466-1.884 7.196 2.439 10.275.05.724.1 1.448-.415 2.68.5 2.837.486 5.898 1.603 8.468 2.982 6.856 6.45 13.5 9.844 20.973 2.677 5.499 5.285 11.033 8.104 16.458.441.848 1.845 1.197 2.893 2.513 1.686 2.377 3.372 4.754 5.068 7.683.011.184.022.368-.037 1.238-1.03 2.34-2.06 4.678-3.722 7.323l-16.929 26.887 1.534 1.82c5.684-2.695 11.346-5.44 17.06-8.07 3.645-1.675 7.37-3.178 11.744-4.776l3.663-1.274c-1.417 2.104-2.304 3.388-3.157 4.695-6.09 9.331-12.222 18.634-18.209 28.031-1.024 1.608-1.413 3.62-2.75 5.663l-18.21 36.466c5.429 3.12 8.674.211 12.808-1.319 3.839-1.65 7.9-2.92 11.48-5.015 16.566-9.691 32.999-19.609 49.475-29.453 1.267-.757 2.498-1.575 4.615-2.914-3.444 8.096-6.414 15.078-9.942 22.499l-4.538 10.325.926.815c2.497-1.368 4.995-2.736 7.137-4.381 0 0 .344.293.974.177.707-.424 1.414-.847 2.078-1.299 0 0-.001.052.686-.012 1.515-.965 3.03-1.93 5.214-3.036 5.681-3.664 11.362-7.33 17.662-11.08.528-.614 1.055-1.228 1.982-1.829 0 0 .39.094.459.816 1.939 1.115 3.879 2.23 5.927 4.051.58.71 1.023 1.64 1.76 2.093 4.58 2.818 9.282 5.44 13.824 8.316 2.05 1.297 3.614 3.491 5.766 4.464 4.286 1.938 8.835 3.285 13.257 4.926 3.696 1.371 7.268 3.221 11.069 4.133 6.537 1.568 13.177 2.8 19.834 3.76 10.878 1.57 21.47-.585 30.707-5.981 10.003-5.844 15.692-15.812 19.54-26.598.865-2.422 1.15-5.284.823-7.831-.311-2.42-1.643-4.858-5.07-3.867-1.591.46-3.172 1.083-4.798 1.267-4.672.527-9.365.868-14.05 1.282l-.054-1.137c1.833-1.161 3.667-2.322 6.35-3.634 2.016-.053 4.03-.106 6.502.393 3.342-.256 7.325 1.717 9.486-3.308.062-.388.124-.775.898-1.318-.281-5.48-.375-10.978-.902-16.434-.433-4.475-1.32-8.91-2.14-13.338-.261-1.406-.583-3.532-1.51-3.96-4.438-2.051-4.997-6.196-6.344-10.05-.212-.608-1.887-.704-3.43-.938-.464.296-.928.593-1.875 1.082-.173.291-.346.582-.506.787 0 0 .043.076-.7.078-1.847 2.587-3.694 5.173-6.214 7.928-5.49 3.26-8.96 8.124-11.16 13.981 0 0 .035.026-.707.002-3.65 1.034-6.205 3.014-6.335 7.603 0 0-.253.345-.913.557-1.55 2.013-2.043 3.792 1.002 4.84 0 0 .014-.088.078.339.103.28.283.498.73 1.463.056 1.385.113 2.77-.376 4.644.513 1.515 1.027 3.03 2.024 4.603 0 0 .462.153.664.86l13 3.776c-1.147.828-1.394 1.16-1.657 1.173-19.137.96-36.461-5.312-52.72-14.413-3.056-1.711-5.595-2.325-8.516-3.156.547-.523 1.095-1.046 2.142-1.859.652-.688 1.303-1.376 2.416-2.23.297-.18.489-.436 1.099-1.013.541-.532 1.083-1.065 2.124-1.987 1.168-1.21 2.336-2.42 3.988-3.98.662-.731 1.323-1.463 2.507-2.394.318-.454.637-.908 1.366-1.525.26-.158.455-.375 1.132-1.044 3.073-3.403 6.146-6.807 9.785-10.41.257-.043.515-.113.771-.11.058 0 .175.269.158.4-.492 3.74-1.263 7.468-1.431 11.222-.204 4.533-2.314 9.248.408 14.07 3.745-3.515 7.032-6.6 10.96-9.776 3.827-3.84 7.655-7.68 11.391-11.566 0 0 .024.1.564-.057.144-.332.288-.663.358-1.016m-88.59-123.53s.1-.058 0 0"/><path fill="#0101FC" d="M252 103v150c-16.686 0-33.374 0-50.531-.355-.462-1.064-.455-1.774-.056-2.54 1.446-.096 2.5-.136 3.717.055.737-.184 1.31-.599 2.278-1.065 1.447-.128 2.501-.205 3.751.023 3.733 3.232 6.08 1.427 8.585-1.425.965-1.099 2.992-1.637 4.575-1.726 1.908-.107 3.857.535 5.788.853l-1.097-5.368c2.15-.45 5.139-.266 6.765-1.665 1.355-1.166 1.1-4.192 1.583-6.388a9.1 9.1 0 0 1 .956-2.566c1.773-4.385 3.234-8.602 4.72-13.115.344-.767.663-1.238 1.359-1.763.813-.283 1.547-.424 1.644-.753 2.662-9.054 5.052-18.162 3.775-27.738-.075-.566-1.13-1.001-1.752-1.867-.034-1.109-.044-1.849.2-2.84.079-2.845.449-5.637-.406-7.982-1.192-3.273.891-7.961-4.04-10.044-.36-1.088-.6-1.885-.924-2.908-.26-.509-.503-.713-.853-1.195-.07-1.075-.1-1.793-.096-2.933-.736-3.794-1.973-7.142-2.145-10.544-.176-3.494-1.98-4.117-4.756-4.418a8 8 0 0 1-.05-1.083c.157-1.345-.054-2.704.504-3.201 4.645-4.147 1.204-4.837-2.466-5.383.659-2.231 1.248-4.228 1.852-6.53.067-.705.12-1.107.516-1.558 2.645-1.443 4.616-2.962 2.634-6.344 1.015-2.452 1.982-4.548 3.313-6.704 1.145-2.344 1.926-4.63 3.063-6.91 1.56.814 2.764 1.624 3.968 2.433l-1.662-1.91zm-15.166 141.58-2.62 1.812c.594.688 1.144 1.904 1.79 1.957 1.443.118 2.933-.344 4.404-.57-.968-1.149-1.936-2.298-3.574-3.198M1 186c0-33.02 0-66.042.362-99.475 1.007.684 1.928 1.705 2.255 2.89 4.213 15.248 9.552 29.918 19.605 42.523 2.82 3.535 2.499 6.863-.495 11.401-4.69 7.11-10.416 13.917-12.568 22.558-.39 1.567-1.278 3.002-1.801 4.543-1.778 5.238-3.495 10.496-5.235 15.747 0 0-.036-.096-.35-.123A68 68 0 0 0 1 186"/><path fill="#0001FC" d="M160 253c-32.354 0-64.708 0-97.418-.268-.123-.799.109-1.33.353-2.09.012-.23.05-.69.425-.683a62 62 0 0 0 6.817-3.189c.714-.424 1.255-.615 2.166-.8 1.799-.33 3.225-.666 4.734-.624 4.254 3.176 7.674.703 11.253-1.13 6.48-3.319 10.946-10.196 19.11-10.69.92-.055 1.71-2.298 2.946-3.526 1.895.765 3.572 1.314 4.88 2.336 3.236 2.53 4.764 1.964 6.023-2.346.775.347 1.25.668 1.78 1.34 5.977 8.73 22.083 18.357 26.588 16.344-.885-1.554-1.768-3.106-2.45-4.746.463-.238.653-.452 1.156-.74 1.148-.07 1.912-.131 2.676-.192 0 0-.038.016-.104.292-.046.478-.025.68.062 1.215 1.709 1.386 3.35 2.437 5.253 3.704 1.423 2.074 2.586 3.934 3.75 5.793"/><path fill="#0101FC" d="M80 1c19.354 0 38.708 0 58.572.295.914.61 1.32.923 1.724 1.237L141 1c2.37 0 4.741 0 7.597.295.89.609 1.294.923 1.7 1.237L151 1c1.389 0 2.778 0 4.584.38.428 1.141.438 1.902.432 2.641-.016-.021.027.012-.43-.002-2.278-.016-4.326-.56-5.878.087-4.02 1.677-7.824 3.878-12.018 5.91-.712.058-1.12.078-1.852.081-.83.318-1.337.652-2.05 1.012-.208.026-.626.008-1.048-.03-3.574.567-8.424-1.316-7.727 4.935-.009-.006.004-.003-.208.088-.48.26-.674.492-1.051.819a8 8 0 0 1-1.137.065c-1.957-.997-3.546-1.984-5.478-3.184-2.106 5.097-5.812 2.844-9.43 2.227-.235-.006-.702-.06-.758-.397-1.402-1.076-2.747-1.815-4.448-2.559-1.064-.082-1.77-.16-2.524-.512-.694-.365-1.341-.456-2.318-.558-.765-.062-1.202-.114-1.703-.474-.746-.685-1.428-1.06-2.417-1.44-.716-.044-1.124-.085-1.568-.415-.69-.398-1.343-.508-2.323-.63-.759-.068-1.19-.123-1.636-.55-.705-3.455-2.108-5.63-5.765-5.615-.747.003-1.5-1.22-2.249-1.879M227 1h25c0 17.687 0 35.375-.346 53.533-.81.483-1.272.496-1.97.28-.376-1.083-.519-1.937-.408-3.018-.269-1.742-.792-3.257-1.334-4.762-.02.01-.062 0-.028-.375.033-1.13.033-1.883.309-2.874-.221-1.753-.72-3.27-1.335-5.035-.382-.736-.645-1.221-.945-2.094-2.572-7.848-5.108-15.308-7.644-22.77l1.194-.504-5.59-3.712c-2.117 2.305-3.507 3.818-5.044 5.058-1.067-1.055-1.988-1.837-2.929-2.989.343-3.825.706-7.281 1.07-10.738"/><path fill="#0001FC" d="M1 21c0-1.067 0-2.133.355-3.563 1.698-.659 3.04-.955 4.383-1.251-1.096-.728-2.16-1.512-3.305-2.152C2.064 13.828 1.483 14 1 14V1c11.354 0 22.708 0 34.531.4.468 1.466.468 2.532.128 3.636-1.112 1.011-1.886 1.986-3.01 3-4.868 5.576-13.853 2.772-17.831 9.377-.157.26-.941.28-1.397.203-5.24-.89-5.027 3.37-5.86 6.383-1.179 4.258-1.86 8.657-3.154 12.873C4.11 37.84 2.179 38.304 1 39c0-4.69 0-9.379.331-14.587.11-1.484-.11-2.448-.331-3.413"/><path fill="#0303F5" d="M62.923 250.873c-.232.53-.464 1.06-.81 1.859-17.8.268-35.488.268-53.42-.007 7.606-3.116 15.457-5.956 23.6-8.655 1.815-.883 3.339-1.908 5.071-3.084.339-.459.469-.767.598-1.075 0 0 0 .08.357.109 1.133-.013 1.908-.054 3.027-.081 1.148-.602 1.951-1.218 2.98-1.863.226-.03.675-.107.97-.117.761-.325 1.227-.64 1.654-1.31-.135-.576-.233-.795-.33-1.014l.448.155c2.123-.98 3.849-2.098 5.575-3.216 0 0 .07-.004.38.158.543.215.777.266 1.391.306 2.292-.526 4.204-1.041 6.166-1.57-.983 3.478-1.791 6.596-2.752 9.665-.936 2.987-2.027 5.925-3.05 8.885z"/><path fill="#0D0CD8" d="M3.487 186.15c1.376-5.214 3.093-10.472 4.87-15.71.524-1.541 1.412-2.976 1.802-4.543 2.152-8.641 7.877-15.448 12.568-22.558 2.994-4.538 3.315-7.866.495-11.401C13.17 119.333 7.83 104.663 3.617 89.415c-.327-1.185-1.248-2.206-2.255-3.359C1 81.643 1 77.286 1.265 72.697c1.025 1.299 1.785 2.829 2.545 4.359 2.005 16.991 9.992 31.703 17.79 46.47 2.531 4.795 7.437 9.434 7.443 14.149.005 4.525-5.224 8.906-7.637 13.614-5.21 10.164-10.073 20.505-15.118 30.753-.696 1.414-1.618 2.717-2.8 4.108"/><path fill="#0203F7" d="M1 229c0-10.354 0-20.708.405-31.534 2.566-1.096 4.825-1.499 6.867-2.394 3.68-1.615 7.233-3.524 11.947-5.859-4.204 8.982-7.67 16.386-11.063 24.01.23.508.465.698.782.808.003.017.007.05-.04.222-.049.171-.1.523-.292.681-.427.397-.618.666-1.05 1.167-1.619 2.974-2.85 5.804-4.33 8.497-.87 1.58-2.138 2.942-3.226 4.402m13.531-32.719-.763-.803c-.11.105-.323.297-.316.304.237.283.494.55 1.08.5"/><path fill="#0404EF" d="M1 39.454c1.179-1.15 3.11-1.615 3.407-2.582C5.7 32.656 6.382 28.257 7.56 24c.834-3.013.621-7.272 5.86-6.383.457.077 1.241.057 1.398-.203 3.978-6.605 12.963-3.8 18.13-9.355.85.013 1.048.045 1.164.385-.774 1.324-1.466 2.34-2.158 3.356-3.684 2.402-7.368 4.804-11.642 7.374-.775.473-.96.776-1.147 1.08-.458.576-.916 1.152-1.891 1.796-.622.397-.727.727-.832 1.057-.12.205-.24.41-.98.834-1.212 1.521-1.806 2.823-2.4 4.124 0 0-.054-.069-.38-.046-2.057 3.398-3.788 6.773-5.518 10.15 0 0-.06-.087-.356.016-1.473 2.733-2.594 5.389-3.851 7.978C2.46 47.184 1.66 48.06 1 49zM79.531 1c1.219.658 1.97 1.882 2.718 1.88 3.657-.016 5.06 2.159 5.372 5.608C78.104 6.59 68.994 4.232 59.42 4.91c-3.13.221-6.296-.04-9.437-.418.344-1.388.68-2.44 1.017-3.492z"/><path fill="#1211C8" d="m9.084 213.003 11.135-23.79c-4.714 2.335-8.266 4.244-11.947 5.859-2.042.895-4.3 1.298-6.867 1.926C1 196.556 1 196.11 1 195.333c7.675-3.665 15.35-6.998 23.025-10.33l.93 1.303c-4.556 9.038-9.112 18.076-14.107 27.416-.44.302-.903.36-.903.36s-.004-.034-.09-.264c-.252-.497-.48-.692-.771-.815"/><path fill="#0304F5" d="M226.531 1c.105 3.457-.258 6.913-.969 10.708-6.884-2.586-13.44-5.47-19.932-8.492-.729-.34-1.095-1.458-1.63-2.216z"/><path fill="#0303F4" d="M160.469 253c-1.633-1.86-2.796-3.719-4.1-6.015.13-.637.4-.837.993-1.02.756.038 1.187.061 1.692.422 2.034.756 3.996 1.174 6.342 1.602 1.4.048 2.415.085 3.717.367 9.36 3.49 18.626 3.318 28.196 1.783.23-.026.69-.066 1.068-.063 1.133.03 1.889.058 2.644.086-.007.71-.014 1.419-.02 2.483-13.355.355-26.71.355-40.532.355"/><path fill="#1311C6" d="M203.625 1c.91.758 1.276 1.877 2.005 2.216 6.492 3.022 13.048 5.906 19.953 8.86 1.288.814 2.209 1.596 3.416 2.953 1.518 1.876 2.936 3.049 3.946 4.505a224 224 0 0 1 8.684 13.53c-.518.034-.725.058-.931.083-9.137-14.906-21.949-24.776-39.445-29.124-.268-.713-.27-.895-.262-1.401.01-.757.01-1.19.009-1.622z"/><path fill="#0203F6" d="M252 102.531c-1.763 1.316-3.525 2.164-5.288 3.011l1.662 1.911c-1.204-.81-2.407-1.619-3.982-2.687-.378-.428-.385-.597-.372-1.01.019-.244.077-.73.427-.812 1.402-4.4 2.454-8.716 3.507-13.452.668-4.445 1.334-8.47 2.341-12.494L252 77z"/><path fill="#2424B4" d="M249.954 76.998c-.666 4.025-1.332 8.05-2.306 12.515-.717.447-1.127.453-1.537.46.62-10.155 1.51-20.304 1.73-30.467.09-4.206-1.257-8.444-1.684-12.987.753-.042 1.238.237 1.723.515 0 0 .042.008.058.384.372 1.786.728 3.195 1.084 4.604.143.854.286 1.708.666 3.243.245 2.476-.008 4.325.34 6.053.327 1.627 1.29 3.126 1.972 4.682 0 1.389 0 2.778-.387 4.625-.811 2.43-1.235 4.401-1.659 6.373"/><path fill="#211FAF" d="M200.98 2.945c.003.183.005.365.003.82-14.872-2.223-29.591-1.55-44.581 2.03-.434-.492-.447-.673-.425-1.08.035-.226.066-.682.066-.682s-.043-.033.361-.012C157.873 3.03 158.936 2.014 160 1c0 0 .5 0 .913.3 1.286.488 2.16.677 3.282 1.09 2.102-.314 3.954-.852 5.805-1.39 7.688 0 15.375 0 23.753.267a92 92 0 0 0 5.698 1.607c.713.042 1.121.057 1.53.071"/><path fill="#1C1EBE" d="M1 49.469c.661-1.41 1.46-2.285 1.957-3.307 1.257-2.59 2.378-5.245 3.902-7.972-4.014 12.319-5.335 25.003-3.026 38.437-.783-1.101-1.543-2.631-2.568-4.394C1 64.646 1 57.29 1 49.469"/><path fill="#1B1AB3" d="M32.002 243.93c-7.852 2.84-15.703 5.68-23.778 8.795C5.667 253 3.334 253 1 252.5c10.407-3.842 20.814-7.185 31.514-10.343.025.713-.244 1.243-.512 1.772"/><path fill="#1513C9" d="M1 229.333c1.088-1.793 2.356-3.155 3.225-4.735 1.482-2.693 2.712-5.523 4.58-8.487.533-.192 1.022-.273 1.06-.238l.113.1c-2.748 7.635-5.496 15.27-8.611 22.966-.367-1.653-.367-3.368-.143-5.657C1.3 232.138 1.15 231.57 1 231z"/><path fill="#0203F9" d="M50.534 1c.13 1.052-.207 2.104-.919 3.549-1.12.416-1.863.44-2.857.189-3.75-.095-7.251.087-10.754.266l-.006-.006L36 1.4C40.69 1 45.379 1 50.534 1"/><path fill="#0603E7" d="M252 65.542c-.683-1.098-1.645-2.597-1.972-4.224-.348-1.728-.095-3.577-.106-5.824.46-.465.923-.478 1.732-.493.346 3.36.346 6.722.346 10.54"/><path fill="#0404EF" d="M1 14.375c.484-.374 1.064-.547 1.433-.341 1.145.64 2.21 1.424 3.305 2.152-1.343.296-2.685.592-4.383.851C1 16.25 1 15.5 1 14.375"/><path fill="#0403F0" d="M159.6 1c-.664 1.014-1.727 2.029-3.18 3.043-.398-.761-.408-1.522-.42-2.663 1.067-.38 2.133-.38 3.6-.38"/><path fill="#0603E7" d="M250.295 76.998c.083-1.972.507-3.943 1.318-5.956.387 1.672.387 3.387.387 5.53-.455.428-.909.427-1.705.426"/><path fill="#0403F0" d="M169.572 1c-1.423.538-3.275 1.076-5.358 1.098-.226-.71-.22-.904-.214-1.098z"/><path fill="#0D0CD8" d="M1 186.417c.486-.405.973-.392 1.821-.336-.134 1.602-.631 3.16-1.475 4.819C1 189.61 1 188.222 1 186.417"/><path fill="#1311C6" d="M199.146 2.847c-1.567-.437-3.135-.875-4.924-1.58 1.167-.267 2.556-.267 4.363.043.466.72.514 1.128.561 1.537"/><path fill="#0404EF" d="M1 21.375c.22.59.441 1.554.331 2.572C1 23.25 1 22.5 1 21.375"/><path fill="#0403F0" d="M140.667 1c.098.51-.136 1.022-.371 1.532-.405-.314-.81-.628-1.255-1.237.403-.295.848-.295 1.626-.295"/><path fill="#0304F5" d="M199.45 2.874c-.351-.436-.399-.845-.448-1.564.442-.31.887-.31 1.665-.31.334.433.334.865.324 1.622-.419.309-.827.294-1.54.252"/><path fill="#0403F0" d="M150.667 1c.098.51-.136 1.022-.37 1.532-.406-.314-.81-.628-1.256-1.237.403-.295.848-.295 1.626-.295"/><path fill="#0101FC" d="M163.625 1c.37.194.363.388.339.874-.892.103-1.765-.086-2.8-.574.586-.3 1.336-.3 2.461-.3"/><path fill="#0203F7" d="M1 231.333c.15.236.299.805.224 1.52-.224-.297-.224-.742-.224-1.52"/><path fill="#FDF4DB" d="m218.045 194.247-5.5 3.483.055 1.137c4.684-.414 9.377-.755 14.05-1.282 1.625-.184 3.206-.808 4.796-1.267 3.428-.99 4.76 1.446 5.07 3.867.328 2.547.043 5.41-.822 7.831-3.848 10.786-9.537 20.754-19.54 26.598-9.238 5.396-19.829 7.55-30.707 5.98-6.657-.96-13.297-2.19-19.834-3.759-3.801-.912-7.373-2.762-11.069-4.133-4.422-1.64-8.971-2.988-13.257-4.926-2.152-.973-3.717-3.167-5.766-4.464-4.542-2.875-9.244-5.498-13.824-8.316-.737-.453-1.18-1.383-1.758-2.513.001-.42.113-.548.455-.482 16.98 10.53 33.935 20.32 53.46 24.492 15.94 3.405 31.375 3.417 45.005-7.313 9.818-7.728 14.817-17.84 15.268-30.625-1.788.281-2.94.409-4.068.648-19.137 4.058-38.07 2.897-56.38-3.653-9.17-3.28-17.692-8.37-26.552-12.9-.099-.421-.154-.586-.162-.788.046-.037.165-.034.165-.034 3.065.293 5.604.907 8.66 2.618 16.259 9.101 33.583 15.374 52.72 14.413.263-.013.51-.345 1.658-1.173-4.753-1.38-8.877-2.579-12.677-4.189 7.068-.025 13.811.363 20.554.75"/><path fill="#0405EE" d="M213.155 137.543c-.483.495-.966.99-1.984 1.688-.707.791-.878 1.378-1.05 1.964 0 0-.145.465-.641.686-1.138 1.552-1.78 2.881-2.42 4.21 0 0-.041-.077-.367-.054-1.116 1.343-1.907 2.663-2.698 3.983 0 0-.003-.026-.25.066-.377.42-.509.749-.64 1.077 0 0-.033-.099-.363-.088-.95 1.118-1.567 2.225-2.185 3.333 0 0-.086.008-.404.006-.586.546-.854 1.093-1.122 1.641 0 0-.03-.053-.26.024-.402.38-.57.682-.74.984 0 0-.027-.06-.26.022-.396.387-.56.693-.725.999 0 0-.034-.069-.26.031-.375.424-.523.748-.672 1.073 0 0-.024-.1-.334-.104-4.115 3.884-7.918 7.772-11.722 11.66l-10.32 9.687c-2.721-4.823-.61-9.538-.407-14.071.168-3.754.94-7.482 1.43-11.223.018-.13-.1-.398-.157-.399-.256-.003-.514.067-1.432.176-1.166.065-1.67.064-2.165-.319 1.688-4.414 4.354-2.9 6.025-.874 2.896 3.513 6.474 3.53 10.343 3.213 1.925-.158 3.85-.32 6.61-.551l3.826-14.407 4.644.78c6.095-3.537 8.278-9.322 10.878-14.972 1.474-3.204 4.653-5.668 4.084-9.783 1.838.001 3.254.004 4.66.383-.997 2.578-2.063 4.749-2.954 6.988-.917 2.302-1.664 4.672-2.485 7.011 0 0-.066.103-.462.08-1.271 1.677-2.146 3.379-3.021 5.08"/><path fill="#0809E5" d="M50.97 160.994c-3.688 1.58-7.412 3.084-11.056 4.76-5.715 2.628-11.377 5.374-17.061 8.07l-1.534-1.82c5.643-8.963 11.286-17.926 17.562-27.132 2.312-3.136 4.477-4.543 7.84-2.307.392.754.69 1.237 1.131 1.908.347.431.58.642.905 1.14.72 1.08 1.376 1.838 2.17 2.794.329.46.571.665.993 1.012.31.47.541.686.963 1.036.333.439.564.65.881 1.103.37.733.688 1.188 1.046 1.94.095.69.15 1.085.224 1.782.337.786.656 1.27.974 2.07-.014.737-.028 1.159-.435 1.593-1.796.692-3.2 1.371-4.602 2.05"/><path fill="#0203F5" d="M90.957 55.612c.01-.253.128-.44.835-.652.705-.435.925-.777 1.145-1.119 0 0-.006.089.33.133 2.8-2.306 5.265-4.656 7.73-7.006 0 0 .005.038.356.07 1.077-.72 1.802-1.472 2.527-2.224 0 0 .06.109.36.152 1.433-.3 2.565-.645 3.927-1.084.52-.287.718-.547.994-1.117.718-.42 1.265-.599 2.17-.776 1.112-.683 1.866-1.367 2.642-2.045.023.006-.02.021.209-.076.514-.293.712-.553 1.059-.897.234-.017.704 0 .965.01.434.012.607.015.895.232.314.485.574.673 1.002 1.039.373.756.636 1.253.727 2.067-2.609 1.46-5.047 2.602-7.627 3.81-.044 3.668 4.597 7.99-1.533 11.089-4.535 2.293-4.433-2.544-7.313-4.306-2.527 4.56-4.318 8.96-3.896 14.314.175 2.208-.92 4.516-1.735 6.654-1.767.258-3.239.64-5.046 1.054-.782.037-1.23.044-1.903-.204-1.415.216-2.606.689-4.123 1.202-.762.066-1.199.09-1.79-.19-1.97-2.113-3.787-3.922-5.686-6.022-.155-.48-.228-.669-.3-.857 0 0 .068.073.3.002.393-.405.552-.74.711-1.075 0 0 .015.105.322.125 3.744-3.702 7.18-7.423 10.618-11.144 0 0 .044.11.302.035.447-.448.636-.821.826-1.194m3.238 14.977.013-1.144c-.158-.002-.454-.014-.455-.004-.03.38-.032.762.442 1.148"/><path fill="#0F0ED4" d="m81.988 217.918 9.384-22.061c-2.117 1.34-3.348 2.157-4.615 2.914-16.476 9.844-32.91 19.762-49.475 29.453-3.58 2.094-7.641 3.365-11.858 4.738-.394-.488-.411-.7-.325-1.18.37-.769.64-1.27 1.228-1.802 1.111-.676 1.902-1.322 3.086-1.968 7.453-3.132 14.536-6.214 21.544-9.457.885-.41 1.38-1.664 2.433-2.54 5.455-3.346 10.53-6.68 15.608-10.014.002 0 .003-.005.322-.045.79-.67 1.26-1.299 2.097-1.93 4.886-2.988 10.698-4.3 12.992-10.203.362-.931 2.351-1.23 3.625-1.509.654.742 1.27 1.172 1.887 1.603l.446-.997c-.788-.308-1.576-.616-2.42-1.268-3.026-3.77-5.996-7.193-8.66-10.611.71.061 1.114.117 1.66.357.35.422.584.627.95 1.101 1.398 1.413 2.694 2.522 4.167 3.851.674.47 1.172.722 1.764 1.277 1.113 1.336 2.131 2.37 3.32 3.634.69.45 1.212.667 1.91 1.108.693.437 1.212.65 1.91 1.067.51.34.841.478 1.363.672.428.214.574.43.702.991.39.479.708.674.994.87-.032.001.026-.03-.018.34-.028.617-.013.865-.3 1.286-4.653-.202-4.523 3.842-5.86 6.152-2.266 3.912-3.967 8.151-6.206 12.419-1.349 2.458-2.395 4.75-3.722 7.656 3.093-1.102 5.198-1.852 7.237-2.298-.428 1.042-.79 1.782-1.152 2.521 0 0 .001-.052-.331-.063-1.014.468-1.695.947-2.376 1.426 0 0-.344-.293-.548-.233-1.559.234-2.913.407-4.748.642z"/><path fill="#E59D60" d="M96.971 37c-.605.413-1.21.826-2.277 1.589-5.63 5.265-10.797 10.18-15.964 15.097 0 0 .094.158-.311.148-3.602 3.829-7.514 4.794-12.161 2.972-.757-.296-1.637-.615-2.398-.502-3.456.51-5.027-1.315-5.735-4.675-.082-.762-.173-1.193-.203-2.089-.04-5.828-.142-11.192-.15-16.973.147-2.13.2-3.841.483-5.731.293-.74.356-1.3.525-2.246.147-1.45.189-2.515.456-3.806.74-1.405 1.256-2.585 1.77-3.765.444.02.888.04 2.022.07 1.434.005 2.176.002 3.239.237 2.917.592 5.62.6 8.093 1.36 9.876 3.036 19.68 6.306 29.511 9.49 0 0 .071-.048.131.174.363.377.667.531.97.685 0 0 .015-.036-.014.317-1.348 1.784-2.668 3.216-3.988 4.648-.835.608-1.67 1.217-2.973 2.051-.77.376-.957.617-1.026.949m-14.52 9.017 18.406-15.854c-11.46-6.401-22.868-8.919-34.616-10.03-1.316-.124-3.986 1.785-4.074 2.905-.71 9.01-.859 18.062-1.382 27.09-.207 3.578 2.321 4.679 4.613 4.322 4.463-.694 10.19 1.525 12.77-4.784.551-1.347 2.456-2.14 4.284-3.65"/><path fill="#E59E62" d="M218.47 194.172c-7.168-.312-13.911-.7-21.08-1.028a1.2 1.2 0 0 1-1.17-.502c-.587-1.833-.892-3.258-1.196-4.682a181 181 0 0 0-.244-4.795c-.162-.975-.377-1.18-.72-1.252 0 0-.013.088.016-.361-.105-1.835-.238-3.219-.371-4.603 0 0 .253-.345.617-.703 2.48-2.646 4.597-4.933 6.713-7.221 0 0-.035-.026.284-.125 2.072-1.734 3.825-3.369 5.614-4.631a153 153 0 0 1-7.053 10.3c-1.668 2.23-5.142 3.521-2.952 7.446 1.51 2.709 2.367 5.776 3.775 8.552.355.7 1.72 1.3 2.59 1.261 8.252-.361 16.502-.79 24.74-1.377 3.392-.242 4.65-2.653 3.903-5.653-2.257-9.05-4.884-18.007-7.133-27.058-1.268-5.101-3.277-8.122-8.869-5.182 1.091-2.049 2.137-3.76 3.183-5.47 0 0-.043-.076.19-.13.407-.345.581-.635.755-.925.465-.297.929-.594 1.712-.587 1.386 2.529 2.497 4.733 3.51 6.982 5.399 11.972 8.494 24.547 9.785 37.59-.062.388-.124.775-.596 1.52-3.45 1.039-6.491 1.72-9.532 2.4-2.015.052-4.03.105-6.47.234"/><path fill="#FCFCF2" d="M59.01 21.01c-.041 1.065-.083 2.13-.494 3.634-.41 1.083-.45 1.727-.49 2.37-.053 1.712-.107 3.424-.613 5.684-.673 5.797-.922 11.044-1.045 16.294-.008.326.973.675 1.493 1.013.091.43.182.862-.041 1.765-.477 2.054-.639 3.637-.8 5.22a328 328 0 0 0-3.804.839c-.524.131-.961.11-1.045-.199a11.4 11.4 0 0 1-.173-1.942c-.236-1.461-.495-2.565-.832-3.93-.161-.424-.244-.586-.297-1.077-.036-.764-.1-1.199-.05-2.093.599-7.477 1.083-14.493 1.903-21.652.63-2.436.925-4.729 1.197-7.327-.02-.713-.016-1.12.019-1.867.034-.792.038-1.245.043-1.699 1.516-.192 3.032-.384 4.748.036.227 2.052.254 3.492.282 4.931"/><path fill="#0303F4" d="M238.001 231.002c-.216.798-.465 1.59-.643 2.397-.483 2.196-.228 5.222-1.583 6.388-1.626 1.399-4.614 1.215-6.765 1.665l1.097 5.368c-1.93-.318-3.88-.96-5.788-.853-1.583.09-3.61.627-4.575 1.726-2.504 2.852-4.852 4.657-8.363 1.183 1.838-1.629 3.76-2.564 5.433-3.828 2.171-1.642 4.144-3.545 6.202-5.336.045-.276.2-.457 1.05-.548 1.368-.057 2.154-.109 3.304-.164 1.44-1.017 2.516-2.03 3.611-3.022.02.022-.026-.015.32-.054.801-.984 1.256-1.929 1.708-2.894-.003-.02.037-.032.249-.144.472-.315.65-.576.992-1.03.72-.456 1.193-.773 1.784-.872.734.151 1.35.084 1.967.018"/><path fill="#1D1BB3" d="M47.008 5.014c.744-.024 1.488-.049 2.6-.13 3.516-.015 6.681.247 9.812.026 9.574-.678 18.684 1.68 28.215 3.95.825.061 1.256.116 2.194.418 1.064.392 1.622.538 2.18.685.408.04.816.082 1.686.373 1.084.667 1.706 1.084 2.328 1.501.436.052.873.104 1.813.405 1.066.363 1.627.478 2.189.593.707.078 1.414.156 2.568.564 1.77 1.076 3.092 1.823 4.414 2.57 0 0 .467.054.87.351.969 1.235 1.536 2.173 2.103 3.111-11.44-3.862-22.715-8.35-34.363-11.426-14.554-3.845-29.033-2.33-43.293 3.765.322-.987 1.014-2.003 1.988-3.332.281-.314.681-.36 1.091-.368 4.142-1.025 7.874-2.04 11.605-3.056"/><path fill="#0B0BDB" d="M123.016 230.98c-.476-.322-.952-.643-1.997-1.185-3.815-2.049-6.236-7.233-11.365-2.753-1.46.996-2.577 1.96-4.067 2.938-6.408 2.724-12.443 5.432-18.543 8.069l-.197-.217c8.429-5.263 16.817-10.594 25.351-15.68.821-.49 2.7.267 3.824.907a186 186 0 0 1 13.92 8.729c.558.895.843 1.203.844 1.708-2.78-.707-5.275-1.612-7.77-2.517"/><path fill="#1E1DB3" d="M141.892 22.68c10.168-5.268 21.05-8.41 32.382-9.164 13.592-.904 27.244-.896 39.597 7.12.121.385-.06.61-.43.546-1.368-.147-2.368-.23-3.557-.538-.741-.406-1.293-.586-2.033-.99-.744-.367-1.299-.511-2.081-.676-.228-.02-.684-.018-.812-.227-.348-.471-.625-.633-1.301-.759-1.44-.383-2.54-.703-3.893-1.29-2.431-.707-4.61-1.149-7.256-1.622-8.468.335-16.47.702-24.773 1.047-.778.288-1.256.597-2.105.9-1.112.039-1.852.084-2.94.085-1.508.555-2.668 1.155-4.21 1.764-2.083.373-3.784.735-5.843 1.14-2.45 1.014-4.544 1.988-7.036 2.97-1.456.133-2.513.26-3.62.216-.052-.17-.09-.522-.09-.522"/><path fill="#FCFCF2" d="M53.263 61.962c3.192.365 6.4.633 9.568 1.152 1.01.165 2.394.796 2.72 1.581.3.723-.294 2.376-1.01 2.865-3.288 2.248-3.682 4.43-2.086 8.332 1.079 2.636-.458 6.342-1.37 9.831-.736.272-.926.282-1.304.265-.187-.028-.56-.095-.564-.415-.044-.745-.084-1.17.1-1.768.359-.709.496-1.244.894-1.993-.541-1.071-1.343-1.928-2.168-3.137-.361-1.464-.698-2.575-.684-3.754.646-1.433.941-2.8 1.237-4.166-.865.085-1.729.17-2.87.266-.46.03-.643.049-.818.062.008-.004.01-.016.032-.309-.24-.786-.503-1.28-.834-2.099-.104-.765-.14-1.206.057-1.797-.135-.749-.5-1.348-.954-2.304-.142-1.093-.198-1.827-.175-2.562.08 0 .229-.05.229-.05"/><path fill="#0303F4" d="M123.069 231.33c2.442.554 4.938 1.459 8.007 2.093.77-.309.964-.348 1.16-.386.424.15.848.3 1.143.653-.53.542-.932.883-1.153 1.5 1.02.463 1.859.65 2.722.835.024 0 .034.048.112.394 1.365.757 2.65 1.167 4.253 1.62 1.121.676 1.928 1.308 2.577 2.144 1.6 1.08 3.358 1.957 5.115 2.834l2.652 4.657c-4.505 2.013-20.611-7.615-26.588-16.344"/><path fill="#1614C5" d="M62.935 250.642c-2.727-.054-5.442-.34-8.157-.624 1.023-2.96 2.114-5.898 3.05-8.885.96-3.07 1.77-6.187 2.752-9.664-1.962.528-3.874 1.043-6.184 1.276-.41-.477-.424-.672-.437-.867l13.557-7.958c-3.942 9.06-7.265 16.697-10.758 24.8-.04.629.09.791.218.953l-.05-.716c4.697-1.397 9.393-2.794 14.538-3.928.47.488.489.712.508.936-.54.19-1.08.38-2.169.808-2.637 1.217-4.727 2.198-6.817 3.18 0 0-.039.459-.051.69"/><path fill="#FDF4DB" d="M235.425 189.94c-1.647-12.965-4.742-25.54-10.14-37.512-1.014-2.249-2.125-4.453-3.238-7.03.951-.021 2.626.075 2.838.682 1.347 3.855 1.906 8 6.345 10.051.926.428 1.248 2.554 1.508 3.96.82 4.428 1.708 8.863 2.14 13.338.528 5.456.622 10.954.547 16.511"/><path fill="#1919C1" d="M51.314 160.985c1.06-.67 2.463-1.35 4.281-1.645-.273 2.797-.961 5.21-1.938 7.777-1.098 1.388-1.907 2.622-2.953 4.024a6.6 6.6 0 0 0-.745 1.82c.027.038-.042-.025-.384.034-2.437 3.704-4.533 7.35-6.651 11.232-.023.238-.034.715-.373.767-2.46 3.348-4.582 6.645-7.029 10.007-1.354 1.082-2.382 2.099-3.475 3.057-.064-.06-.188-.182-.188-.182.682-1.826 1.071-3.839 2.095-5.447 5.987-9.397 12.12-18.7 18.209-28.03.853-1.308 1.74-2.592 3.157-4.696-1.878.653-2.77.963-4.006 1.282"/><path fill="#0404EF" d="M232.039 41.038c.351 1.109.703 2.218 1.04 4.072.669 5.452 1.352 10.157 1.643 14.796-1.136-2.549-1.88-5.03-2.681-7.705l-5.043 3.104c0-6.336 0-11.82.017-17.598.042-.489.067-.684.47-.842 1.133.047 1.888.056 2.643.065 0 0-.09.043-.101.328.382.752.774 1.22 1.167 1.686 0 0-.108-.008-.146.27.305.794.648 1.309.99 1.824"/><path fill="#1917BD" d="M24.996 232.05c.017.212.034.424.09.952-3.418 1.767-6.663 4.675-12.092 1.556 6.156-12.328 12.183-24.397 18.537-36.574.328-.108.452.014.475.446-.343 1.482-.64 2.562-1.085 3.577-3.651 8.326-7.33 16.639-11.24 25.13-.432.72-.624 1.267-1.055 2.052-.622 1.547-1.006 2.856-1.637 5.008 1.824-.566 2.922-.907 4.366-1.24 1.445-.296 2.543-.602 3.64-.907"/><path fill="#1F1DB0" d="M235.114 59.973c-.683-4.706-1.366-9.411-2.055-14.499.998 1.343 2.46 2.95 2.933 4.81 4.351 17.108 1.735 33.733-4.266 50.397-.451.284-.87.27-.82-.123 1.698-9.12 3.345-17.847 5.023-26.945.02-1.114.008-1.858.036-3.04-.022-2.49-.085-4.544-.106-6.941-.22-1.449-.483-2.554-.745-3.659"/><path fill="#191AB6" d="M155.941 4.941c.014.18.027.362.054.815C143.983 11.1 132.007 16.3 119.881 21.12c-1.905.757-4.49-.197-6.466-.749 3.386-1.384 6.478-2.38 9.57-3.376.171-.013.342-.027.99-.149.757-.28.945-.522 1.042-.836 0 0-.013-.003.347-.039 2.84-1.642 5.319-3.248 7.798-4.855 0 0 .418.018.936-.028 1.033-.357 1.548-.666 2.063-.976.409-.02.817-.04 1.899-.13 6.41-1.73 12.146-3.386 17.881-5.042"/><path fill="#FDF5E3" d="M103.866 27.81c-9.825-2.818-19.63-6.088-29.506-9.124-2.472-.76-5.176-.768-7.844-1.65 1.451-.697 2.972-.866 4.492-1.036 11.056 1.72 21.98 3.858 31.589 10.088.503.326.846.9 1.269 1.723"/><path fill="#E8B76D" d="M13.049 66.952c0-3.009 0-6.018.18-9.608.392-.828.59-1.085 1.064-1.054.41 12.418 2.244 24.19 7.002 35.444.866 2.048.89 4.451.992 6.52-2.616-6.214-4.92-12.258-7.226-18.303a328 328 0 0 1-.193-2.933c-.634-3.862-1.226-6.964-1.819-10.066"/><path fill="#0F0ED4" d="M110.95 209.951c-5.681 3.665-11.362 7.33-17.78 11.045-1.54.065-2.343.08-3.015-.215 1.377-1.125 2.623-1.941 4.182-2.919 2.287-1.434 4.473-2.474 6.186-4.034 2.693-2.452 5.066-5.254 7.924-7.886.817.033 1.286.046 1.955.132.448.248.59.487.61 1.174-.03 1.159-.047 1.931-.062 2.703"/><path fill="#2120B2" d="M84.018 76.047c.437-.025.874-.05 1.988-.081 1.783-.332 2.89-.656 3.996-.98.448-.008.896-.015 2.088-.02 2.11.048 3.476.096 4.866.532.03 1.426.036 2.464-.261 3.518-.7.09-1.097.164-1.584.129-.09-.11-.278-.322-.278-.322 1.986-3.304-.495-2.185-1.995-2.004-7.855.947-15.708 1.902-24.805 3.005 3.18-3.784 5.67-6.748 8.564-9.769.402-.057.63.166.553.51-1 2.127-1.924 3.908-3.443 6.839z"/><path fill="#E8B76D" d="M66.756 98.383c.763 1.341 1.526 2.683 2.446 4.66.9 1.846 1.644 3.056 2.441 4.287.053.02-.055.056-.006.361.64 1.143 1.23 1.98 1.907 3.104.568 1.142 1.047 1.999 1.442 3.223-.148.613-.21.857-.6 1.018-2.024-2.254-4.168-4.209-5.329-6.635-3.22-6.73-6.03-13.658-8.76-20.482l.728.075c.153.551.306 1.103.724 2.187 1.154 1.782 2.042 3.031 2.93 4.28.07.338.14.675.316 1.571.658 1.157 1.21 1.754 1.76 2.351"/><path fill="#FDF4D8" d="M14.004 55.99a4.6 4.6 0 0 1-.802.903c-1.3-5.884-2.588-11.833 2.365-17.057 2.869-3.026 5.275-6.49 8.193-9.435.192.974.08 1.626-.037 2.31-.006.034-.002.102-.231.17-.513.263-.664.533-.718.872-.035-.005-.103.016-.423.1-5.517 5.785-7.712 12.667-8.289 20.526-.056.75-.057 1.18-.058 1.611"/><path fill="#2221B8" d="M230.856 100.95s.419.015.628.025c-4.647 10.337-9.504 20.664-14.603 31.2.578-2.131 1.325-4.5 2.242-6.803.891-2.24 1.957-4.41 3.098-7.275.711-1.793 1.27-2.92 1.809-4.06-.02-.01.016-.002.325-.17 2.373-4.417 4.437-8.667 6.5-12.917"/><path fill="#FDF5E3" d="M57.364 57.15c-.183-1.743-.02-3.326.447-5.049 1.022 2.888 2.593 4.713 6.049 4.203.76-.113 1.641.206 2.398.502 4.647 1.822 8.559.857 12.09-3.031-1.126 5.595-4.25 7.35-9.253 5.882-3.706-1.088-7.585-1.585-11.731-2.507"/><path fill="#FDF4D8" d="M14.778 80.205c2.588 5.79 4.893 11.835 7.509 18.212.31.333.435.64.442.993.691 1.547 1.374 2.74 2.057 4.098 0 .166.126.472.13.841.402 1.766.802 3.163 1.128 4.622l-.221.186c-3.275-6.729-6.743-13.373-9.725-20.23-1.117-2.569-1.102-5.63-1.32-8.722"/><path fill="#1F1DB4" d="M244.016 216.01c-.319.47-.638.94-1.3 1.703-.77.291-1.196.29-1.621.289 4.781-10.91 5.62-22.371 4.833-34.916.08-1.615.104-2.382.358-2.936.726 1.095 1.223 1.977 1.72 2.859.01.74.02 1.48.014 3.056-1.346 10.54-2.675 20.242-4.004 29.944"/><path fill="#FCFCF2" d="M71.09 15.627c-1.602.543-3.123.712-4.893 1.17-.993.294-1.735.297-2.843.222.839-1.372 1.807-3.132 3.287-3.875 4.79-2.404 9.698-1.975 15.662 1.128-2.469.124-3.858.142-5.235.276-1.97.19-3.932.466-5.979 1.079"/><path fill="#CB9CA4" d="M111.028 206.862c-.036-.301-.178-.54-.723-1.113A49 49 0 0 0 107 202.99c-.002.013.024.006-.06-.293-.94-.86-1.798-1.421-2.783-2.197-.42-.363-.712-.511-1.11-.884-.326-.5-.61-.663-1.108-.996-1.065-.747-1.98-1.21-2.917-1.649-.022.023.02-.028.011-.306-.332-.428-.656-.577-.98-.727 0 0-.057.031-.088-.25-.355-.48-.678-.676-1.002-.873-.057-.277-.203-.494-.697-.967-.269-.493-.278-.67.08-.908 5.083 3.177 9.905 6.273 14.454 9.727 1.74 1.322 2.859 3.462 3.98 5.279-.468.094-.653.138-.839.183 0 0-.39-.094-.743-.383a13.3 13.3 0 0 0-2.169-.885"/><path fill="#1E1EB6" d="M222.661 239.808c-1.703 1.695-3.676 3.598-5.847 5.24-1.673 1.264-3.595 2.2-5.629 3.523-1.276.32-2.33.396-4.07.499-1.174.303-1.661.581-2.148.86-1.054.039-2.108.079-3.554.175-1.147.03-1.903.002-3.034-.243-.377-.216-.376-.642-.376-.642 8.72-1.49 16.949-4.263 24.658-9.412"/><path fill="#FDF5E3" d="M79.098 53.762c4.799-4.992 9.966-9.908 15.466-14.924.087.845.153 2.15-.456 2.68a293 293 0 0 1-15.01 12.244"/><path fill="#0504E9" d="M134.01 26.114c2.385-1.107 4.769-2.213 7.518-3.377.364-.057.401.296.442.791-3.87 4.105-6.766 9.185-13.082 9.206-.379-.767-.646-1.272-.705-2.048 2.082-1.706 3.955-3.139 5.827-4.572"/><path fill="#2120B2" d="M107.936 43.977c-1.131.344-2.263.688-3.75.96a301 301 0 0 1 18.452-12.887c.456.044.683.277.54.574-2.507 2.313-4.87 4.33-7.233 6.347 0 0-.47-.017-.937.093-.664.374-.86.638-1.055.901 0 0 .043-.015-.296.018-1.12.69-1.902 1.347-2.683 2.005-.548.178-1.095.357-2.04.876-.68.532-.881.79-.998 1.113"/><path fill="#0403F0" d="M122.617 16.986c-2.724 1.006-5.816 2.002-9.344 3.016-1.244-.03-2.053-.076-3.077-.346-.783-1.163-1.35-2.1-2.085-3.33 3.216.32 6.922 2.573 9.028-2.524 1.932 1.2 3.52 2.187 5.478 3.184"/><path fill="#2020B1" d="M234.977 142.037s.031.465.045 1.055c.09 1.3.168 2.01.145 2.793-.1.073-.296.226-.296.226-1.754-3.293-3.748-6.488-5.149-9.924-.61-1.495-.458-3.664.15-5.213 1.18-3.016 2.925-5.811 4.834-8.788.398-.09.603.102.528.437a38 38 0 0 0-.181 2.404c-.053.402-.106.804-.469 1.709-4.954 5.817-3.75 10.358.393 15.3"/><path fill="#FDF4D8" d="M36.85 128.135c-.96-.58-2.363-.928-2.804-1.776-2.819-5.425-5.427-10.96-8.164-16.83-.06-.372.088-.496.436-.371 1.773 2.384 3.197 4.644 4.632 6.868.01-.035-.03.03.002.368 1.008 1.788 1.985 3.238 2.965 4.652.004-.038-.022.039.017.385 1.09 2.388 2.14 4.429 3.122 6.528z"/><path fill="#1E1EB6" d="M197.08 250.166c-9.341 1.508-18.608 1.68-27.594-1.844.583-.303 1.08-.325 1.575-.347 3.765.43 7.53.86 12.065 1.6 4.046.25 7.323.192 10.599.133.813-.17 1.626-.34 2.868-.24.43.27.487.698.487.698"/><path fill="#FDF4DB" d="M206.897 163.896c-1.753 1.635-3.506 3.27-5.565 5.022 1.868-5.776 5.338-10.64 11.234-13.924.405-.024.54.095.464.424-2.088 3.057-4.098 5.785-6.111 8.507z"/><path fill="#0605E6" d="M248.26 182.757c-.751-.63-1.248-1.512-1.982-3.033a482 482 0 0 1-2.449-8.715s-.156-.158-.032-.731c.129-2.134.134-3.695.139-5.256 4.81 1.792 2.726 6.48 3.918 9.753.855 2.345.485 5.137.406 7.982M241.017 218.37c.503-.367.928-.366 1.672-.36-1.141 4.221-2.602 8.438-4.375 12.823-.93.235-1.546.302-2.223-.203.201-1.996.464-3.421.727-4.846 0 0 .072.113.352.112.747-.652 1.213-1.302 1.68-1.953.696-1.735 1.393-3.47 2.167-5.573"/><path fill="#2020B1" d="M243.815 164.731c.116 1.852.11 3.413.014 5.44-2.714-6.763-5.335-13.993-7.901-21.686.055-.462.28-.646.545-.428 1.987 3.5 3.71 6.78 5.434 10.06.03.718.06 1.436.208 2.74.293.88.54 1.08.86 1.192.24.797.479 1.594.84 2.682"/><path fill="#0E0BDC" d="M71.918 101.717c1.526-1.777 3.05-3.554 5.171-5.513 1.035-.189 1.475-.195 1.874.171-.673 1.87-.96 4.316-2 4.695-3.778 1.376-2.814 4.318-3.299 6.828-.886-.255-1.48-.384-2.076-.512 0 0 .108-.036.205-.509.107-2.035.116-3.598.125-5.16"/><path fill="#2020B1" d="M244.097 103.026s-.058.486-.346.957c-1.115 2.983-1.943 5.494-2.771 8.006a591 591 0 0 1-3.196 6.845 71 71 0 0 1-2.475 3.454l-.308-.288c2.644-6.738 5.39-13.38 8.556-19.8.46.424.5.625.54.826"/><path fill="#FDF4D8" d="M26.934 27.734c1.428-1.937 2.626-4.12 4.356-5.734 1.351-1.26 3.363-1.81 5.805-2.836 1.83-.133 2.935-.106 3.811.183-2.519 1.644-4.809 3.026-7.107 4.432-.007.024.04.007-.264.028-.773.38-1.242.74-1.906 1.137-.193.04-.554.202-.836.274-.528.57-.774 1.069-.91 1.66.11.094-.095-.11-.39-.09-.706.406-1.12.793-1.524 1.188.008.007-.007-.024-.266-.069-.429-.088-.599-.13-.769-.173"/><path fill="#2627B9" d="M184.379 170.7a189 189 0 0 1 11.446-11.593c-3.47 3.867-7.299 7.707-11.446 11.592"/><path fill="#FDFCF2" d="M41.135 19.086c-1.105-.028-2.21-.055-3.73-.084-.68-1.728-.944-3.454-1.465-6.85 2.986 1.78 4.968 2.963 7 4.793.039 1.05.026 1.45-.282 1.937-.706.127-1.114.165-1.523.204"/><path fill="#2120B2" d="M89.503 56.865A167 167 0 0 1 79.16 67.903c3.1-3.67 6.56-7.307 10.344-11.038"/><path fill="#0605E6" d="M244.447 102.944c-.39-.119-.43-.32-.535-.82.62-3.981 1.302-7.661 2.092-11.747.517-.41.927-.417 1.643-.445a98 98 0 0 1-3.2 13.012"/><path fill="#1A19B3" d="M230.085 36.583c-.712.338-1.467.329-2.625-.07-2.408-2.768-4.415-5.146-6.428-7.873-.114-1.036-.223-1.721-.23-2.487.102-.08.298-.249.298-.249 2.98 3.444 5.96 6.888 8.985 10.68"/><path fill="#2523B4" d="M170.997 154.977c.505 0 1.009.002 1.891.036-2.694 3.438-5.767 6.842-9.257 10.25-.417.004-.729-.361-.693-.672.069-.73.1-1.148.378-1.728.765-.99 1.285-1.82 2.119-2.734 1.406-1.087 2.497-2.089 3.59-3.103.003-.013-.006-.037.26-.155.749-.71 1.23-1.302 1.712-1.894"/><path fill="#3433A4" d="M81.71 218.137c-.336 2.223-.95 4.666-1.707 7.68 1.835-.235 3.19-.408 4.926-.504-2.116 1.447-4.614 2.815-7.111 4.183l-.926-.815c1.513-3.442 3.025-6.884 4.817-10.544"/><path fill="#231096" d="M46.63 142.294c-3.272-1.965-5.437-.558-7.433 2.425.713-2.248 1.743-4.587 3.053-7.34.432-.49.585-.565.99-.554.419.148.586.21.816.513.347.404.63.566.926.698.014-.03-.05-.015-.011.309.7 1.435 1.363 2.547 1.935 3.734-.09.074-.276.215-.276.215"/><path fill="#2929B8" d="M83.933 88.939c2.854-2.756 5.707-5.511 8.846-8.231.286.035.344.44.251.76a141 141 0 0 1-8.182 7.679c-.195.007-.568.127-.655.043z"/><path fill="#0B0BDB" d="M77.871 241.864c2.74-1.321 5.479-2.642 8.597-3.997.379-.035.51.11.472.516-2.961 1.523-5.886 2.639-8.875 3.686z"/><path fill="#1C1EBE" d="M7.459 37.994c1.435-3.203 3.166-6.578 5.256-9.947-1.414 3.263-3.187 6.518-5.256 9.947"/><path fill="#FDF4DB" d="M225.169 194.213c2.813-.956 5.854-1.636 9.295-2.38-1.742 4.373-5.725 2.4-9.295 2.38"/><path fill="#FDF4D8" d="M12.76 67.228c.882 2.826 1.474 5.928 2.039 9.434-4.212-1.96-2.72-5.691-2.039-9.434"/><path fill="#FDF4DB" d="M218.746 147.089c-.675 1.71-1.72 3.42-2.797 5.477-.03.346-.027.348-.303.467-1.03.764-1.785 1.41-2.54 2.056l-.204-.179c1.778-2.647 3.625-5.233 5.844-7.821"/><path fill="#2120B2" d="M100.667 47.044a73 73 0 0 1-7.438 6.907c2.12-2.322 4.615-4.576 7.438-6.907"/><path fill="#1311C6" d="M247.914 46.658c-.519.098-1.004-.18-1.754-.553-.264-.094-.463-.284-.361-.83-.569-2.124-1.24-3.703-1.91-5.281 0 0-.192-.147-.097-.695.123-1.126.15-1.704.513-2.282.781.008 1.228.017 1.674.026.264.485.527.97.905 2.091.43 2.053.746 3.47 1.062 4.887 0 .754.001 1.508-.032 2.637"/><path fill="#FDF4D8" d="M42.954 18.795 43 17.294c3.383-.624 6.758-.948 10.557-1.262.42.465.415.918.072 1.577-3.784.532-7.23.859-10.675 1.186"/><path fill="#FDF4DB" d="M200.664 169.013c-1.745 2.3-3.862 4.587-6.279 7.029-.297-4.027 2.258-6.007 6.279-7.029"/><path fill="#FDF4D8" d="M41.997 136.002c-1.686-2.376-3.372-4.753-5.103-7.498-.045-.369.093-.486.412-.38a16 16 0 0 1 2.483 2.401c.023.168.183.466.249.717.332.457.597.662.84.86-.022-.009-.021.04.026.358.545 1.267 1.044 2.216 1.43 3.259z"/><path fill="#2120B2" d="M133.654 26.063c-1.516 1.484-3.389 2.917-5.82 4.643-1.255.38-1.949.469-2.743.425-.1-.13-.306-.388-.306-.388 2.838-1.577 5.675-3.154 8.869-4.68"/><path fill="#1C1DA8" d="M236.53 225.951c.025 1.258-.238 2.683-.558 4.461-.53.671-1.001.988-1.94 1.547-.74.443-.912.71-.986 1.04 0 0-.04.01-.329.033-.667.1-1.046.178-1.522.161l-.292-.283c1.779-2.264 3.558-4.528 5.626-6.959"/><path fill="#2020B1" d="M243.802 171.433c.764 2.268 1.5 4.96 2.246 8.078-.016 1.193-.04 1.96-.08 3.108a222 222 0 0 1-2.166-11.186"/><path fill="#FDF5E3" d="M101.363 34.003c.927-1.435 2.247-2.867 3.582-4.634.66.399 1.303 1.132 1.946 1.865-1.711.924-3.423 1.848-5.528 2.769"/><path fill="#0B0BDB" d="M72.343 245.97c-.39-.23-.41-.453-.481-1.01 1.731-1.233 3.515-2.133 5.654-3.064.355-.032.485.105.477.47-.337 1.111-.668 1.857-.998 2.603-1.427.335-2.853.67-4.652 1"/><path fill="#1614C5" d="M32.293 244.07c-.023-.67.246-1.2.58-2.02.812-.621 1.559-.952 2.85-1.284.545-.002.977-.069 1.09.042s.342.33.342.33c-1.523 1.024-3.047 2.049-4.862 2.932"/><path fill="#FDF4DB" d="M113.975 208.49c.15-.405.336-.45 1.02-.303 2.019 1.376 3.538 2.562 5.057 3.748 0 0-.112.129-.168.196-1.995-1.049-3.935-2.164-5.91-3.64"/><path fill="#2523B4" d="M158.558 170.57c-1.167 1.21-2.335 2.42-3.908 3.654-.405.023-.734-.303-.708-.63.02-.767.014-1.207.065-1.84.055-.193.126-.59.451-.661 1.367-.442 2.408-.812 3.61-1.015.16.167.49.492.49.492"/><path fill="#2020B9" d="M193.299 249.63c-2.85.137-6.127.196-9.745.107 2.879-.16 6.098-.173 9.745-.107"/><path fill="#2A1492" d="M148.916 179.721c-.547.523-1.095 1.046-1.714 1.838-.072.269-.19.266-.534.203-1.496-.928-2.648-1.792-3.442-2.726a13 13 0 0 1 2.14-.102c.756.037 1.19.026 1.941.037.742-.012 1.165-.047 1.59.127 0 .208.019.623.019.623"/><path fill="#E8B76D" d="M26.715 27.948c.389-.171.56-.129.979.304-1.155 1.736-2.56 3.081-3.965 4.427l.39-2.283c.829-.963 1.602-1.598 2.596-2.448"/><path fill="#FDF5E3" d="M59.236 20.784c-.253-1.213-.28-2.653-.27-4.44.595-.173 1.152.003 1.875.427-.35 1.428-.864 2.608-1.605 4.013"/><path fill="#1B1AB3" d="M52.31 232.647a29 29 0 0 1-5.217 3.132c1.38-1.12 3.133-2.089 5.217-3.132"/><path fill="#FDF4DB" d="M194.752 188.203c.576 1.181.88 2.606 1.226 4.41-.472-1.136-.986-2.651-1.226-4.41M193.375 177.055c.463 1.278.596 2.662.73 4.462-3.103-.564-2.61-2.343-.73-4.462"/><path fill="#2A1195" d="M71.638 101.854c.271 1.425.262 2.988.102 5.003-.894-.758-1.638-1.968-2.445-3.49.646-.665 1.354-1.02 2.343-1.513"/><path fill="#1A1BAA" d="M142.047 239.98a474 474 0 0 1-2.748-2.167c-.329-.27-.39-.72-.279-.836l.334-.35c2.127.884 4.253 1.768 6.522 3.008.141.355.02.523-.364.489-1.411-.071-2.438-.108-3.465-.145"/><path fill="#2221B8" d="M213.453 137.36a19 19 0 0 1 2.706-4.839c-.55 1.607-1.48 3.13-2.706 4.838"/><path fill="#FEF3D2" d="M64.773 94.065c-.982-.853-1.87-2.102-2.808-3.69.934.871 1.918 2.082 2.808 3.69"/><path fill="#3433A4" d="M90.024 221.09c.803-.014 1.606-.03 2.812-.024-1.113.985-2.628 1.95-4.487 2.947.019-.707.381-1.447 1.009-2.522.264-.335.666-.4.666-.4"/><path fill="#1C1EBE" d="M13.353 27.94c.303-1.177.897-2.479 1.799-3.825-.297 1.204-.903 2.452-1.799 3.824"/><path fill="#2627B9" d="M204.29 149.887c.496-1.187 1.287-2.507 2.442-3.83-.472 1.23-1.31 2.463-2.442 3.83"/><path fill="#1A1BAA" d="M158.981 246.05c-.432-.024-.863-.047-1.736-.326-.746-.695-1.051-1.134-1.284-1.664l.22-.271c1.688.411 3.376.823 5.274 1.558.015.506-.213.63-.806.684-.778-.002-1.223.008-1.668.018"/><path fill="#1A1BAA" d="M150.93 243.169a4 4 0 0 1 .002-.901c1.633.139 3.202.574 5.01 1.265.24.256.092.436-.342.492-1.845-.248-3.257-.552-4.67-.856"/><path fill="#2424B4" d="M243.875 40.37c.684 1.202 1.355 2.781 1.962 4.773-.7-1.19-1.337-2.794-1.962-4.773"/><path fill="#2627B9" d="M200.822 154.256c.353-.956.97-2.063 1.966-3.158-.316 1.011-1.008 2.009-1.966 3.158M207.358 145.975c.343-1.213.984-2.542 1.942-3.93-.337 1.233-.99 2.524-1.942 3.93"/><path fill="#2020B9" d="M170.74 247.804c-.175.193-.67.215-1.54.272-1.389-.002-2.404-.04-3.82-.307-.401-.231-.477-.667-.339-.82.14-.153.407-.469.407-.469 1.657.385 3.314.77 5.292 1.324"/><path fill="#1A19B3" d="M216.158 22.846c1.195.503 2.39 1.006 3.663 1.9.077.39-.06.57-.377.485-1.393-.765-2.47-1.444-3.482-2.19z"/><path fill="#1C1DA8" d="M227.847 235.838c.83-.892 1.662-1.784 2.775-2.802.28-.126.476.062.492.482-.042 1.095-.1 1.77-.159 2.445 0 0 .045.037-.316.031-1.031.114-1.701.233-2.475.223-.103-.129-.317-.379-.317-.379"/><path fill="#1B1AB3" d="M41.002 239.925c-.775.041-1.55.082-2.71.066.746-.723 1.876-1.387 3.37-2.001.365.05.413.12.283.35-.4.683-.672 1.134-.943 1.585"/><path fill="#2523B4" d="M161.028 168.026c-.662.732-1.323 1.464-2.227 2.37-.243.174-.574-.15-.695-.624-.076-.884-.031-1.294.334-1.726.936-.163 1.554-.303 2.275-.338z"/><path fill="#231096" d="M111.013 207.248c.62-.188 1.226.01 1.984.492-.373.897-.9 1.51-1.737 2.168-.295-.729-.279-1.501-.247-2.66"/><path fill="#2523B4" d="M149.166 179.576c-.25.145-.268-.27-.262-.725s-.065-.945-.008-1.15c.058-.204.15-.618.468-.636.74-.056 1.161-.095 1.688-.023.104.11.318.324.318.324a43 43 0 0 1-2.204 2.21"/><path fill="#1C1DA8" d="M227.006 239.003c-.786.052-1.572.104-2.755.134.375-.732 1.148-1.442 2.34-2.144.421.008.667.218.598.511a23 23 0 0 0-.183 1.499"/><path fill="#2020B9" d="M160.983 246.044c.26-.067.487-.191.809-.524 1.13.104 2.133.359 3.396.787.26.173-.008.489-.499.615-1.563-.209-2.634-.544-3.706-.878"/><path fill="#2120B2" d="M103.568 44.87c-.413.696-1.138 1.448-2.233 2.162.394-.728 1.158-1.417 2.233-2.162"/><path fill="#2424B4" d="M240.745 33.48c.16-.358.366-.382.959-.095.768 1.338 1.149 2.364 1.38 3.526-.151.137-.455.406-.455.406-.613-1.169-1.225-2.337-1.884-3.838"/><path fill="#2523B4" d="M154.4 174.42c-.386.703-.928 1.236-1.844 1.769-.375.001-.608-.232-.543-.537.678-.78 1.29-1.256 1.903-1.731 0 0 .33.326.484.498"/><path fill="#FEF3D2" d="M52.255 57.94s.437.02.656.042c.219 1.08.218 2.138.285 3.588.067.392-.083.442-.415.19-.397-1.44-.462-2.63-.526-3.82"/><path fill="#1C1DA8" d="M238.54 223.976c-.157.618-.623 1.268-1.431 1.892.146-.637.633-1.248 1.43-1.892"/><path fill="#FEF3D2" d="M66.808 98.032c-.604-.246-1.155-.843-1.715-1.76.583.257 1.175.833 1.715 1.76"/><path fill="#1A1BAA" d="M132.046 234.913c.401-.34.802-.68 1.471-1.04.654.087 1.04.194 1.502.66.078.357-.135.584-.488.552-1.064-.08-1.774-.125-2.485-.172M150.86 241.725c-.585.332-1.349.393-2.512.194-.424-.436-.45-.613-.387-.881l.267-.277c.818.23 1.636.462 2.633.964"/><path fill="#3433A4" d="M85.614 225.35c.366-.421 1.047-.9 2.083-1.354-.354.449-1.061.872-2.083 1.354"/><path fill="#2929B8" d="M81.914 90.921c.495-.584.99-1.169 1.752-1.868.267-.114.44.053.438.404-.05.727-.097 1.102-.422 1.52-.636.145-.994.248-1.456.248z"/><path fill="#1B1AB3" d="M45 237.97s-.448.076-1.012.076c-1.014.021-1.464.042-1.913.063l-.073-.104c.65-.461 1.322-.888 2.401-1.26.407.056.631.29.618.523-.012.234-.02.701-.02.701"/><path fill="#1513C9" d="M9.897 214.253c.048-.172.511-.229.744-.241.07.513-.095 1.039-.46 1.763-.203.199-.28.132-.294-.168-.04-.477-.064-.654-.09-.83 0 0 .052-.353.1-.524"/><path fill="#1A19B3" d="M231.179 38.629c-.378-.152-.77-.619-1.132-1.416.393.146.755.623 1.132 1.416"/><path fill="#1A1BAA" d="M146.082 239.91c.649.06 1.232.2 1.981.596.165.255-.012.44-.381.483-.842-.249-1.314-.54-1.787-.831 0 0 .122-.168.187-.248"/><path fill="#1C1EBE" d="M16.674 23.067c-.127-.291-.022-.621.337-.916.264.37.143.651-.337.916"/><path fill="#1A1BAA" d="M132.058 232.75c-.018.325-.213.364-.697.476-.576-.235-.861-.543-1.247-1.15.522-.07 1.145.16 1.944.674"/><path fill="#1E1DB3" d="M214.085 20.91c.584.113 1.074.337 1.392.841-.174.28-.63.33-.824.22-.437-.287-.653-.492-.843-.725 0 0 .182-.225.275-.337"/><path fill="#1A1BAA" d="M135.2 234.774c.652.061 1.201.238 1.828.763.078.348-.113.585-.435.56a40 40 0 0 0-1.611-.024s-.01-.048-.03-.276c-.018-.227-.068-.68-.068-.68s.213-.227.316-.343"/><path fill="#1B1AB3" d="M46.336 235.67c.381.184.479.403.289.976-.722.365-1.157.377-1.591.388 0 0-.224-.233-.334-.351.377-.405.865-.692 1.636-1.013"/><path fill="#1A1BAA" d="M137.204 235.769c.647.068 1.197.253 1.948.648.202.21-.02.444-.416.517-.871-.222-1.346-.517-1.821-.812 0 0 .19-.237.289-.353"/><path fill="#2120B2" d="M122.98 31.977c.333-.458.778-.8 1.514-1.187.291-.047.498.21.397.527-.59.547-1.08.779-1.57 1.01z"/><path fill="#2929B8" d="M80.388 92.492c.334-.453.667-.906 1.264-1.465.262-.106.47.097.476.483-.054.789-.114 1.19-.381 1.597-.208.006-.62.057-.8-.117-.179-.174-.559-.498-.559-.498"/><path fill="#FEF3D2" d="M61.043 87.662c-.018.332-.503.282-.773-.056-.28-.755-.29-1.173-.302-1.59.19-.01.38-.02.858-.022.27.45.253.894.217 1.668"/><path fill="#2627B9" d="M199.307 155.985c-.008-.478.26-1.025.859-1.53.026.515-.279.987-.86 1.53"/><path fill="#2523B4" d="M162.506 166.466c-.319.453-.638.907-1.217 1.46-.261.1-.47-.112-.447-.454.365-.744.709-1.147 1.205-1.414z"/><path fill="#1A19B3" d="M232.12 40.715c-.424-.192-.767-.707-1.047-1.549.418.191.772.71 1.046 1.55"/><path fill="#2929B8" d="M79.003 96.003c-.44.006-.879.012-1.648.016.002-.48.334-.96 1.057-1.381.502.195.614.334.689.695-.037.222-.098.67-.098.67"/><path fill="#2020B1" d="M235.874 148.119c-.389-.404-.67-.904-.976-1.706-.027-.302.168-.455.448-.308.474.677.668 1.206.863 1.734 0 0-.226.184-.335.28"/><path fill="#2627B9" d="M210.446 141.092c-.153-.483.018-1.07.479-1.774.14.478-.006 1.074-.479 1.774"/><path fill="#2424B4" d="M243.97 37.017a36 36 0 0 1-.155 2.164c-.403-.12-.733-.67-1.124-1.541-.062-.323.242-.592.573-.659.33-.066.706.036.706.036"/><path fill="#1C1DA8" d="M226.893 236.893c.08-.368.28-.627.717-.97.237-.085.451.165.395.448-.27.488-.5.674-.747.84 0 0-.246-.21-.365-.318"/><path fill="#1614C5" d="M37.622 239.906c.21.313.08.621-.258 1.08-.209.151-.438-.067-.527-.287s-.14-.446-.14-.446c.194-.117.389-.234.925-.347"/><path fill="#FDF4D8" d="M42.987 136.739c-.152.075-.305.15-.702.297-.256-.113-.267-.297-.283-.757-.005-.277.22-.466.45-.39.364.323.465.58.535.85"/><path fill="#1C1EBE" d="M19.435 20.186q-.125-.356.555-.908.125.356-.555.908"/><path fill="#2120B2" d="M77.614 68.898c.336.153.409.342.302.86-.35.374-.52.418-.689.463l-.342-.334c.08-.392.273-.672.73-.989"/><path fill="#FDF5E3" d="M97.182 36.933c-.142-.265.045-.506.582-.672.101.258-.1.465-.582.672"/><path fill="#2020B9" d="M197.31 250.14c-.23.026-.287-.402-.3-.618.15-.277.314-.34.735-.351.258.05.257.475.255.688-.002.214-.461.254-.69.28"/><path fill="#FDF5E3" d="M108.471 34.456c.05-.029-.05.028 0 0"/><path fill="#2120B2" d="M92.632 53.902c.085.28-.135.623-.672 1.025-.088-.281.139-.622.672-1.025M90.666 55.727c.101.258-.088.63-.594 1.078-.11-.271.097-.617.594-1.078M78.62 67.875c.11.25-.05.585-.491.988-.114-.255.054-.579.491-.988"/><path fill="#FDF5E3" d="M104.865 28.8c-.196.081-.5-.073-.901-.468.199-.084.496.074.9.467"/><path fill="#2120B2" d="M93.776 79.758c.19-.264.382-.529.815-.864.242-.07.43.142.365.422-.278.505-.516.7-.88.76-.101-.105-.3-.318-.3-.318"/><path fill="#2120B2" d="M93.123 81.147s-.058-.404-.075-.607.268-.605.498-.693c.23-.089.429.124.382.418-.267.532-.52.728-.805.882"/><path fill="#2627B9" d="M203.363 151.071q-.19-.353.396-.987.19.353-.396.987"/><path fill="#0303F5" d="M36.51 240.246c.186.007.237.232.214.342-.024.11-.456.176-.671.175-.161-.275 0-.45.457-.517"/><path fill="#2929B8" d="M79.361 93.495c.131-.31.333-.56.817-.879.21-.124.59.2.64.57-.15.618-.392.814-.868.79a20 20 0 0 0-.589-.481"/><path fill="#2929B8" d="M78.661 94.47c-.028-.464.137-.657.527-.89.306.02.439.124.63.59-.147.607-.394.8-.68.94a10 10 0 0 1-.477-.64"/><path fill="#2523B4" d="M163.357 165.46c.014.467-.18.684-.646.924-.205.082-.511-.19-.635-.573-.123-.383-.085-.88.143-.873.228.006.683-.036.683-.036s.312.365.455.557M152.295 176.31c.026.455-.166.712-.694.973-.231.083-.445-.132-.42-.44.228-.557.475-.75.767-.886 0 0 .233.233.347.353"/><path fill="#FDF4DB" d="M194.093 182.126c.31-.141.525.064.592.634-.277.078-.457-.14-.592-.634"/><path fill="#1A19B3" d="M219.967 25.048c.368.064.665.216 1.048.612.085.244-.111.413-.375.347-.48-.264-.685-.472-.879-.691 0 0 .137-.18.206-.268"/><path fill="#FDF4DB" d="M219.821 146.13q.1.29-.52.87-.1-.29.52-.87"/><path fill="#1A19B3" d="M214.848 22.08s.455-.049.684-.059c.228-.01.5.372.563.599s-.068.355-.342.288c-.534-.28-.745-.533-.905-.827"/><path fill="#2627B9" d="M198.297 157q-.144-.358.502-.913.144.358-.502.913"/><path fill="#1B1AB3" d="M53.713 231.902c.26.171.272.366.303.854-.216.242-.45.19-.986-.058-.18-.548.067-.74.683-.796"/><path fill="#2627B9" d="M197.314 158.026c-.104-.248.061-.554.488-.928.101.244-.059.557-.488.928M196.384 159.109c-.121-.246.027-.57.439-.983.119.242-.025.573-.439.983"/><path fill="#0605E6" d="M244.393 215.955c.952-9.648 2.28-19.35 3.65-29.52.639.028 1.694.463 1.769 1.03 1.277 9.575-1.113 18.683-3.775 27.737-.097.329-.83.47-1.644.753M234.99 141.65c-4.156-4.556-5.36-9.097-.42-14.61-.294 1.798-.883 3.795-1.542 6.026 3.67.546 7.11 1.236 2.466 5.383-.558.497-.347 1.856-.504 3.201M236.473 148.057c-.459-.746-.653-1.275-1.027-2.024-.256-.93-.333-1.64-.393-2.71 2.762-.29 4.567.334 4.743 3.828.172 3.402 1.409 6.75 2.145 10.544-1.757-2.858-3.481-6.139-5.468-9.638"/><path fill="#0303F4" d="M237.17 244.456c1.302 1.025 2.27 2.174 3.238 3.323-1.471.226-2.961.688-4.404.57-.646-.053-1.196-1.269-1.79-1.957a52 52 0 0 1 2.955-1.936"/><path fill="#0605E6" d="M235.234 122.623c.802-1.302 1.529-2.268 2.502-3.435 2.276 2.828.305 4.347-2.34 5.79-.308-.64-.273-1.33-.162-2.355M241.343 111.93c.465-2.453 1.293-4.964 2.39-7.703.274-.058.281.11.302.534-.766 2.54-1.547 4.825-2.692 7.17"/><path fill="#0303F4" d="M205.13 250.16c.324-.509.81-.787 1.591-1.04-.28.441-.854.856-1.59 1.04"/><path fill="#0605E6" d="M242.89 161.823q-.354.173-.734-.608.344-.156.734.608"/><path fill="#0303F4" d="M77.077 245.346c.248-1.123.579-1.869.98-2.912 2.997-1.412 5.922-2.528 8.95-3.978 6.137-3.044 12.172-5.752 18.778-8.232 1.786.077 3-.073 4.215-.224-.85 1.228-1.64 3.471-2.56 3.527-8.164.493-12.63 7.37-19.11 10.689-3.58 1.833-6.999 4.306-11.253 1.13"/><path fill="#0303F4" d="M109.998 227.01c4.785-4.448 7.206.736 10.721 2.759-.689 4.531-2.217 5.097-5.454 2.567-1.307-1.022-2.984-1.57-4.88-2.336-.386 0-.385 0-.385-.374 0-1.121 0-1.869-.002-2.616"/><path fill="#0B0BDB" d="M150.997 243.503c1.346-.03 2.758.274 4.53.613.667.474.972.913 1.394 1.592-.152.44-.422.64-.811 1.062-1.762-.83-3.404-1.881-5.113-3.267M145.512 240.124c.856.325 1.328.616 2.08.957.306.225.332.402.372.847-.104.548-.294.762-.758 1-1.958-.788-3.715-1.664-5.316-2.745 1.184-.167 2.21-.13 3.622-.06M63.36 249.959c1.716-.988 3.806-1.969 6.27-2.952-1.716.984-3.806 1.971-6.27 2.952"/><path fill="#0403F0" d="M155.977 4.715c-5.771 1.882-11.507 3.539-17.613 5.228 3.52-1.959 7.323-4.16 11.344-5.837 1.552-.647 3.6-.103 5.878-.087.457.014.426.47.39.696M132.74 11.078c-2.057 1.646-4.537 3.252-7.367 4.9-1.057-6.215 3.793-4.332 7.367-4.9M106.95 15.632c-1.265-.41-2.588-1.157-4-2.229 1.254.414 2.599 1.153 4 2.229"/><path fill="#0404EF" d="M91.973 9.674c-.522.142-1.08-.004-1.817-.384.474-.124 1.127-.014 1.817.384"/><path fill="#0403F0" d="M99.979 12.561c-.516.16-1.077.044-1.813-.309.472-.147 1.12-.056 1.813.31M95.958 11.529c-.557-.109-1.18-.526-1.956-1.19.528.13 1.21.505 1.956 1.19M135.838 10.097c-.192.326-.707.635-1.533.965.196-.313.703-.647 1.533-.965M124.805 16.102c.115.223-.073.466-.574.71-.1-.218.095-.45.574-.71"/><path fill="#0204F4" d="M244.305 37.017c-.335 0-.71-.102-.891-.172-.561-1.096-.942-2.122-1.398-3.47-3.062-4.836-5.988-9.393-9.071-13.841-1.01-1.456-2.428-2.629-3.8-4.233 1.25-1.814 2.64-3.327 4.759-5.632l5.59 3.712-1.195.505c2.536 7.46 5.072 14.921 7.644 22.77-.41.378-.857.369-1.638.36M248.223 43.784c-.593-1.18-.91-2.597-1.221-4.4.502 1.13 1 2.647 1.22 4.4"/><path fill="#0805DD" d="M249.276 51.795c-.61-1.182-.966-2.591-1.318-4.386a16.5 16.5 0 0 1 1.318 4.386"/><path fill="#0203F9" d="M34.993 8.079s-.4.045-.6.05c-.397-.026-.595-.058-1.094-.111.474-.996 1.248-1.97 2.36-2.982.339-.038.342-.035.315.292a34 34 0 0 1-.981 2.75"/><path fill="#1614C5" d="M41.945 238.34c.58-.252 1.03-.273 1.818-.264-.466.645-1.269 1.26-2.417 1.863-.073-.465.199-.916.6-1.599M45.021 237.268c.447-.245.882-.257 1.642-.265-.14.317-.606.63-1.367.956-.295.01-.287-.457-.275-.691"/><path fill="#1211C8" d="M14.366 196.44c-.42-.109-.677-.375-.914-.658-.007-.007.206-.199.316-.304.255.268.509.535.598.962M9.606 214.934c.217.02.242.196.244.638-.023.266-.512.347-.761.337-.101-.31.09-.578.517-.975"/><path fill="#1513C9" d="M9.156 213.223c.218-.097.447.098.696.578-.231.12-.466-.07-.696-.578"/><path fill="#0B0BDB" d="M160.65 246.031c1.405.347 2.476.682 3.9 1.044.353.027.429.463.445.684a23.7 23.7 0 0 1-5.941-1.372c.372-.348.817-.358 1.595-.356"/><path fill="#0404EF" d="M35.403 8.07c-.092-.8.226-1.607.574-2.74 3.53-.505 7.03-.687 10.781-.592-3.481 1.291-7.213 2.307-11.355 3.332"/><path fill="#F9B145" d="M59.781 85.988c.198.445.209.863.247 1.593 2.999 7.162 5.81 14.09 9.03 20.82 1.16 2.426 3.304 4.381 5.4 6.866.4.315.489.79.522 1.108.698 1.086 1.362 1.855 2.023 2.625-.003 0 0-.005-.001.366 1.347 2.118 2.694 3.865 4.082 5.826.041.214.086.648.136.89.229.556.496.727.885.752.03-.003.08.028.104.213.273.088.523-.008 1.058-.053.66.143 1.033.236 1.535.533.3.486.533.703.961 1.048.332.442.57.644.906 1.144 2.776 2.977 5.496 5.609 8.283 8.605 3.08 3.174 6.091 5.984 9.147 9.118 1.652 2.094 3.259 3.864 4.916 5.98 3.694 3.77 7.339 7.196 11.164 10.69.181.067.547.193.655.511 5.271 4.563 10.247 9.07 15.667 12.955 3.192 2.286 7.09 3.586 10.67 5.33 8.816 4.271 17.339 9.361 26.508 12.642 18.31 6.55 37.243 7.711 56.38 3.653 1.128-.24 2.28-.367 4.068-.648-.451 12.785-5.45 22.897-15.268 30.625-13.63 10.73-29.065 10.718-45.004 7.313-19.526-4.172-36.48-13.961-53.46-24.492-1.862-1.252-3.381-2.438-5.118-3.864-1.619-2.007-2.737-4.147-4.478-5.469-4.55-3.454-9.371-6.55-14.44-9.73-.356.06-.358.085-.4-.196-.37-.424-.698-.567-.994-.723.033-.014-.01.042.05-.319-4.629-5.144-9.5-9.765-13.972-14.743-10.698-11.906-21.18-24.006-31.838-35.95-1.126-1.262-2.835-2.003-4.273-2.986 0 0 .064-.015.125-.303.054-.506.046-.724-.026-1.297-1.433-1.663-2.804-2.972-4.174-4.28 0 0-.001-.048-.044-.29-.308-.448-.575-.654-.841-.86 0 0-.16-.298-.144-.872-.914-4.136-1.296-8.081-5.933-9.034 0 0 .026-.077.055-.414-.991-1.763-2.01-3.189-3.03-4.615 0 0 .04-.065.055-.418-2.012-4.121-4.037-7.89-6.063-11.658 0 0-.126-.306-.057-.86-.665-1.723-1.4-2.893-2.133-4.063 0 0-.125-.307-.124-.47-.413-2.402-.437-4.805-1.303-6.853-4.758-11.255-6.593-23.026-7.002-35.444-.288-.73-.287-1.161.123-2.01a438 438 0 0 0 8.081-17.642c.357-.828.13-1.906.174-2.869 0 0 .068-.021.357-.051.424-.322.559-.613.693-.905 0 0-.004-.068.002-.101 1.41-1.379 2.816-2.724 4.23-4.415.01-.345.024-.314.326-.326.705-.41 1.107-.806 1.51-1.203 0 0 .205.204.381.047.42-.66.663-1.165.905-1.67 0 0 .36-.162.88-.183.975-.407 1.43-.791 1.883-1.176 0 0-.046.017.355.07 2.24-.601 4.04-1.405 5.924-1.88 3.686-.93 7.418-1.676 11.678-2.619-.976 5.612-2.243 9.897-2.335 14.207-.11 5.15.785 10.322 1.244 15.484.065.434.13.869-.09 1.93 1.275 10.078 2.64 19.566 4.531 28.949.439 2.174 2.67 3.987 4.076 5.966 0 0 .373.067.56.095"/><path fill="#D5A3A1" d="M147.127 182.65c-3.536-1.486-7.434-2.786-10.626-5.072-5.42-3.885-10.396-8.392-15.502-13.132.056-.495.388-.84.687-.69 3.97 2.854 7.64 5.56 11.313 8.253.003-.011-.02-.004.075.322 3.352 2.477 6.609 4.627 9.849 6.758-.017-.02-.056.016-.056.016 1.153.865 2.305 1.729 3.755 2.694.351.265.406.43.505.852"/><path fill="#0000FD" d="M79.1 95.333c.324-.364.57-.556.909-.995.417-.338.66-.534.988-.979.13-.195.542-.246.827.076 2.982 2.522 3.103.59 3.16-1.784.035-.747.059-1.173.447-1.608a68 68 0 0 1 4.478 1.426c1.25-1.764 2.492-3.222 3.396-4.866 1.356-2.466 2.474-5.062 3.693-7.603a580 580 0 0 1-.011-3.778c.015-.849.025-1.033.035-1.217.518-2.263 1.614-4.571 1.44-6.78-.423-5.354 1.368-9.754 3.895-14.313 2.88 1.762 2.778 6.599 7.313 4.306 6.13-3.099 1.49-7.421 1.533-11.089 2.58-1.208 5.018-2.35 7.975-3.963 3.409-.264 6.298-.056 9.191.152l.631-9.321c6.204-.284 9.1-5.364 13.021-9.299 1.067-.452 2.124-.579 3.62-.391 1.08.77 1.72 1.227 2.522 2.005 3.114 3.998 7.288 5.17 9.724 2.506 3.813-4.169 8.53-3.391 13.241-3.284 1.602.037 3.887.555 4.7-.278 4.573-4.684 10.263-3.006 15.598-3.205 3.24-.121 4.987 1.509 4.22 4.957-1.056.479-1.756.95-2.457 1.422l1.142 1.178c.556-.87 1.113-1.739 2.09-2.62 5.137-.335 9.853-.66 14.63-.637 2.357 1.448 4.653 2.549 6.864 4.025-2.803.864-5.52 1.351-8.675 1.918-.326 3.624 1.52 7.265 4.924 8.78 2.005.891 5.241-1.113 7.956-1.647 1.593-.313 3.25-.295 4.878-.426v17.304l5.043-3.104c.802 2.675 1.545 5.156 2.681 7.705.654 1.172.917 2.277.772 3.733-1.642 1.206-3.947 2.11-3.91 2.906.11 2.372.979 4.865 4.34 4.467.013.743.024 1.487-.368 2.704-1.572 5.843-2.739 11.212-3.953 16.797h-5.124c.89 1.828 1.635 2.988 2.021 4.258.357 1.176.723 2.58.407 3.69-1.493 5.228-3.219 10.389-4.861 15.574 0 0-.036-.008-.415-.014-2.647 1.036-6.97-1.147-6.636 3.98.991 4.115-2.188 6.58-3.662 9.783-2.6 5.65-4.783 11.435-10.878 14.972l-4.644-.78c-1.342 5.054-2.64 9.937-3.826 14.407-2.76.23-4.685.393-6.61.55-3.869.318-7.447.3-10.343-3.212-1.67-2.027-4.337-3.54-6.025.874-.492.974-.973 1.566-1.767 1.917-1.012-1.936-1.713-3.633-2.5-5.537-5.286 4.671-10.013 8.849-15.082 13.066-1.045.676-1.748 1.314-3.135 2.571 2.215.196 3.335.296 4.462.769.015 1.121.024 1.87-.275 2.745-1.404-.194-2.496-.528-3.596-.833-.965-.268-2.09-.944-2.882-.674-2.807.957-5.501 2.242-8.58 3.394-.8.007-1.258.022-2.087-.005-1.11-.029-1.847-.016-2.585-.003 0 0 .022-.007.083-.348-3.984-3.787-8.03-7.233-12.39-10.769-.746-.056-1.175-.02-1.604.056 0 .042.066-.01.226-.225.199-.39.238-.564.396-.882.25-.361.362-.587.83-.836 1.575-1.53 2.778-3.047 3.943-4.516-3.77-1.754-7.251-2.33-8.853-4.375-2.123-2.711-3.662-2.072-6.094-1.086-1.023-.755-1.783-1.37-2.528-2.323.009-.792.003-1.245.316-1.752.01-2.535-.3-5.015-.618-7.57a623 623 0 0 0-9.078-2.39c-1.792-1.928-3.046-4.006-4.731-5.639-1.735-1.68-3.89-2.924-5.87-4.355-.008.004-.003-.008-.11-.23-.314-.5-.586-.675-1.133-.87-.465-.333-.65-.594-.798-1.214-.62-.789-1.208-1.268-2.01-1.988-.813-.378-1.41-.514-1.993-.674.014-.023 0 .026-.003-.265-.333-.44-.66-.59-.974-.746.014-.008-.008.016.078-.354-.018-1.122-.122-1.874.049-2.815-.383-2.93-1.042-5.671-1.687-8.355-1.123.141-2.792.35-4.459.552.003-.007-.013-.011-.013-.011.194-2.637-.77-5.579 3.007-6.955 1.04-.379 1.328-2.825 2-4.695.041-.372.102-.82.139-1.042m138.51 15.583 3.213-1.21-.094-1.423-3.778-.532c-.01.992-.021 1.983.659 3.165"/><path fill="#0404EF" d="M217.417 118c-.756-5.126 3.567-2.943 6.234-3.968-.16 1.144-.719 2.272-1.421 3.687-1.559.286-2.975.283-4.813.282"/><path fill="#0303F0" d="M53.946 166.963c.688-2.413 1.376-4.826 2.042-7.636-.008-.818.006-1.24.032-2.247.017-.943.022-1.301.14-1.954.152-.502.191-.71.347-.862.227.203.308.365.34.96.88 1.195 1.777 1.975 2.87 2.847.554.541.91.99 1.178 1.809-.138.62-.185.869-.431 1.435-.275 2.09-.351 3.862-.717 5.783-2.256 2.55-4.03 1.232-5.801-.135"/><path fill="#231096" d="M50.79 148.21c-.657-.759-1.314-1.518-1.933-2.692.038-.416.241-.605.501-.447.84.975 1.42 1.792 1.858 2.741-.143.132-.425.398-.425.398"/><path fill="#0B07DA" d="M56.047 155.421c-.005.358-.01.716-.026 1.343-.331-.215-.65-.698-.713-1.411.417-.13.578-.031.74.068"/><path fill="#231096" d="M56.16 155.126c-.274.196-.435.096-.87-.075-.33-.468-.385-.862-.352-1.666.088-.41.345-.636.616-.471.46.542.648.919.837 1.296-.04.207-.08.414-.231.916"/><path fill="#231096" d="M54.898 153.088c-.446-.342-.763-.797-1.06-1.603.021-.35.17-.493.432-.375.512.626.762 1.133 1.013 1.64zM47.71 144.284a23 23 0 0 1-.988-1.719c-.092-.271.094-.412.422-.337.597.559.867 1.043.994 1.659-.144.131-.428.397-.428.397"/><path fill="#231096" d="M48.795 145.198c-.363-.083-.596-.294-.943-.725-.142-.189.142-.455.494-.452.589.252.722.549.752.892zM51.79 149.22c-.292-.148-.534-.353-.863-.813-.136-.197.146-.463.489-.458.575.244.723.528.682.959z"/><path fill="#231096" d="M52.745 150.265c-.284-.16-.515-.375-.825-.846-.13-.2.075-.408.4-.397.592.238.747.525.7.965z"/><path fill="#231096" d="M53.785 151.208c-.338-.103-.569-.314-.902-.753-.138-.19.045-.376.356-.35.566.257.72.545.77.887 0 0-.15.143-.224.216"/><path fill="#0203F7" d="M128.888 32.734c-.101 3.417-.315 6.57-.519 9.584-2.893-.208-5.782-.416-9.02-.47-.61-.343-.873-.84-1.358-1.813-.423-.745-.684-.932-1.004-1.037-.174-.002-.347-.005-.781-.017 2.102-2.027 4.465-4.044 6.972-6.357.633-.528 1.123-.76 1.813-1.176.894-.273 1.588-.361 2.633-.47.618.484.885.989 1.264 1.756"/><path fill="#0505E9" d="M77.15 70.566c.246-.39.416-.434.848-.517 2.079 1.771 3.895 3.58 5.866 5.693-2.944.712-6.042 1.12-10.157 1.662 1.52-2.931 2.443-4.712 3.443-6.838M89.777 74.73c-.882.58-1.988.904-3.446 1.195.84-.506 2.03-.979 3.446-1.195M96.726 73.88c.286.309.276.493.236.953-1.396.229-2.762.181-4.537.102 1.062-.415 2.534-.797 4.301-1.055"/><path fill="#0404E9" d="M111.332 41.989c.423-.659 1.205-1.316 2.302-2.012-.437.645-1.19 1.329-2.302 2.012"/><path fill="#0505E9" d="M93.955 70.587c-.234-.384-.232-.766-.202-1.146 0-.01.297.002.455.004-.004.381-.009.763-.253 1.142"/><path fill="#0404E9" d="M114.182 39.868q-.052-.25.591-.787.18.35-.591.787M117.1 39.213q.31-.166.782.563-.31.165-.781-.563M108.167 43.882q-.17-.341.598-.777.181.346-.598.777"/><path fill="#0101FB" d="M53.657 167.117c2.06 1.213 3.834 2.532 6.086-.008.287-.136.302-.14.305.11.155.512.308.776.46 1.039.156-.431.312-.862.721-1.302.423-.009.592-.008.927.244.726.432 1.285.611 1.987 1.098 2.692 2.128 5.241 3.948 7.86 6.13.924 3.36 1.8 6.333 5.983 5.576.01-.006.01.018.11.238.294.493.552.677.883.768.01-.003 0 .025 0 .025 2.972 3.424 5.942 6.848 8.967 10.619.054.346.051.35.051.35-1.237.59-3.226.888-3.588 1.819-2.294 5.902-8.106 7.215-13.318 10.235-1.158.668-1.624 1.303-2.09 1.938 0 0 0 .005-.406.004-2.136-.335-3.865-.668-5.64-1.32-.681-.772-1.318-1.225-2.33-1.68-1.125 0-1.875 0-3.014.008-7.493.84-3.409 5.685-3.738 9.286-.378 1.097-.629 1.9-1.253 2.747-6.002 1.76-11.407 5.496-17.62 1.959l-.028-.322c-.676-1.106-1.323-1.892-2.007-3.016-1.142-1.934-2.25-3.529-2.717-4.203 2.414-5.169 4.583-9.814 7.118-14.382 1.38 2.61 2.393 5.143 3.407 7.676l1.422-.095 1.613-10.718 4.897 5.147c.666-5.886-2.215-9.186-5.815-12.145 0 0 .011-.477.435-.712 3.383-1.059 7.259-8.006 6.592-11.294 0 0 .07.063.342.02.409-.69.545-1.336.682-1.982.81-1.235 1.618-2.469 2.716-3.857m-4.207 44.595.792.83.344-.327c-.264-.277-.529-.554-1.136-.503"/><path fill="#0203F7" d="M108.098 205.92c-2.509 2.654-4.882 5.456-7.575 7.908-1.713 1.56-3.9 2.6-6.537 3.989-3.096-.634-4.748-4.36-8.042-1.817 1.938-4.102 3.639-8.34 5.904-12.253 1.338-2.31 1.208-6.354 6.129-6.25.735-.365.9-.46 1.065-.553 0 0-.043.05-.082.353.011.739.063 1.176.125 1.968 1.335 2.585 2.176 5.617 6.227 3.889a22 22 0 0 0 1.71-.157s-.025.007-.083.322a7.3 7.3 0 0 0 .195 1.868c.298.513.571.686.926.75.01.006.038-.016.038-.016"/><path fill="#0302F8" d="M35.002 217c6.211 3.537 11.616-.198 17.622-1.701.38.385.384.557.388.729-.676.863-1.17 2.117-2.055 2.527a454 454 0 0 1-21.9 9.458c-1.515.666-2.283 1.33-3.05 1.996a44 44 0 0 0-.908 1.774c-1.201.572-2.299.878-3.75.826-1.063-1.458-1.774-2.558-2.485-3.658.193-.547.385-1.094 1.155-1.848 4.398-1.485 9.065-1.985 7.274-8.144-.141-.485 1.478-1.522 2.328-2.245 1.1-.935 2.25-1.812 3.38-2.714.648.786 1.295 1.572 1.62 2.719a692 692 0 0 1-3.789 3.982l1.568 1.122z"/><path fill="#0102F4" d="M53.39 216.016c-.382-.16-.385-.332-.393-.762.247-1.06.498-1.863 1.177-3.118 1.56-3.347 2.693-6.241 3.826-9.135.75 0 1.5 0 2.67.318 1.056.773 1.693 1.226 2.33 1.68 1.73.333 3.46.666 5.593 1-4.673 3.336-9.748 6.67-15.203 10.017"/><path fill="#0205EF" d="M85.643 216.166c3.595-2.71 5.247 1.017 8.03 1.812-.895.862-2.14 1.678-3.518 2.803-.131.31-.533.375-.732.407-2.304.782-4.41 1.532-7.502 2.634 1.327-2.906 2.373-5.198 3.722-7.656"/><path fill="#231096" d="M85.888 186.13c-1.297-1.109-2.593-2.218-3.873-3.752.016-.424.248-.668.542-.545 1.517 1.292 2.74 2.461 3.803 3.797zM90.978 191.029c-1.019-1.033-2.037-2.066-3.073-3.498-.016-.4.148-.584.434-.457 1.314 1.146 2.342 2.164 3.188 3.375z"/><path fill="#0304F1" d="M26.327 229.98c.447-.636 1.215-1.301 2.337-1.967-.435.645-1.226 1.291-2.337 1.967"/><path fill="#231096" d="M80.805 181.213c-.404-.055-.808-.11-1.519-.172-.306-.006-.297-.034-.397-.258-.292-.511-.556-.69-.893-.761v-.383c.05-.844.098-1.329.444-1.715 1.127 1.014 1.956 1.93 2.68 2.958z"/><path fill="#0101FB" d="M88.002 191.998q1.184.46 2.365.922l-.446.997c-.616-.43-1.233-.861-1.887-1.603-.037-.31-.034-.314-.032-.316"/><path fill="#0102F4" d="M69.32 205.956c.147-.595.613-1.23 1.405-1.897q-.219.895-1.405 1.897"/><path fill="#231096" d="M87.811 187.227c-.575-.155-1.073-.406-1.747-.877-.176-.22.138-.554.522-.567.745.379 1.106.771 1.467 1.164 0 0-.164.184-.242.28M92.882 192.146c-.522-.218-1.044-.436-1.735-.885-.047-.361.075-.49.616-.687.797.302 1.176.672 1.446 1.175z"/><path fill="#231096" d="M94.789 193.233c-.519-.213-1.038-.427-1.731-.864-.176-.223.041-.488.422-.526a7.7 7.7 0 0 1 1.475.218s.043-.056-.022.207c-.028.426.01.589 0 .805zM99.032 196.666c-.155.372-.32.466-.752.658-.284-.15-.3-.398-.27-1.015.366-.22.69-.07 1.022.357M97.033 195.1q.381-.13.963.587c-.255.086-.573-.11-.963-.588"/><path fill="#231096" d="M95.99 193c-.003.179.006.356.082.792-.263.122-.593-.015-1.103-.356-.18-.203-.084-.31.22-.335.472-.043.642-.06.812-.078 0 0 .002-.026-.01-.023M81.913 182.075c-.382-.05-.616-.255-.965-.677-.143-.185.066-.406.396-.424.622.159.818.41.919.736 0 0-.232.244-.35.365"/><path fill="#F79343" d="M82.179 46.248c-1.555 1.278-3.46 2.071-4.01 3.418-2.58 6.31-8.308 4.09-12.77 4.784-2.293.357-4.821-.744-4.614-4.322.523-9.028.672-18.08 1.382-27.09.088-1.12 2.758-3.03 4.074-2.905 11.748 1.111 23.157 3.629 34.616 10.03-6.456 5.561-12.43 10.707-18.678 16.085"/><path fill="#FDF5E3" d="M57.922 49.54c-.581.127-1.562-.222-1.554-.548.123-5.25.372-10.497.952-15.876.46 5.232.561 10.596.602 16.424M58.255 26.836c-.188-.465-.148-1.109.156-1.806.2.506.137 1.067-.156 1.806"/><path fill="#F79343" d="M215.904 152.904c5.622-3.286 7.631-.265 8.899 4.836 2.249 9.051 4.876 18.008 7.133 27.058.748 3-.511 5.411-3.903 5.653-8.238.586-16.488 1.016-24.74 1.377-.87.039-2.235-.561-2.59-1.261-1.408-2.776-2.265-5.843-3.775-8.552-2.19-3.925 1.284-5.216 2.952-7.446a153 153 0 0 0 7.053-10.3c-.036-.373-.017-.349.345-.348 4.316-2.77 9.214-4.832 8.644-11.007z"/><path fill="#E8B76D" d="M50.82 48.588c-.575-4.702-1.47-9.874-1.36-15.024.092-4.31 1.36-8.595 2.335-14.207-4.26.943-7.992 1.69-11.678 2.619-1.884.475-3.684 1.279-5.916 1.856 1.896-1.46 4.186-2.841 6.705-4.485.638-.3 1.046-.338 1.752-.465 3.741-.414 7.187-.741 10.94-.934.305.54.302.948.077 1.936-.577 2.785-.933 4.99-1.29 7.194-.483 7.017-.967 14.033-1.566 21.51M59.217 85.573c-1.402-1.66-3.633-3.472-4.072-5.646-1.89-9.383-3.256-18.87-4.56-28.619.337-.136.42.026.502.805.296 1.722.592 2.827.888 3.933.037.425.074.85.196 1.584.148 1.5.213 2.69.53 4.131.31.986.366 1.72.45 3.105.278 1.155.53 1.658.78 2.162.035.44.07.882.135 1.941.303 1.112.578 1.605.852 2.098 0 0-.002.012-.015.408 1.024 3.451 2.06 6.507 3.127 9.786.029.223.164.652.131.957.29.79.611 1.275.933 1.76.04.425.079.85.123 1.595"/><path fill="#FEF3D2" d="M52.722 26.936c.02-2.063.376-4.267.976-6.747-.05 2.018-.346 4.311-.976 6.747M51.998 55.688c-.319-.748-.615-1.853-.832-3.314.337.75.596 1.853.832 3.314"/><path fill="#0605E6" d="M227.19 237.504c.314-.46.545-.645.918-1.004.83-.273 1.5-.392 2.512-.528-.734.997-1.81 2.01-3.25 3.028-.326-.399-.288-.8-.18-1.496M231.301 235.924c-.287-.636-.229-1.31-.09-2.311.46-.403.839-.48 1.51-.56-.164.942-.619 1.887-1.42 2.87M233.258 232.886c-.138-.218.035-.484.525-.79.125.214-.053.475-.525.79"/><path fill="#0001FC" d="M109.654 227.042c.345.715.346 1.463.347 2.585-1.215.524-2.43.674-3.842.581.918-1.207 2.034-2.17 3.495-3.166"/><path fill="#0202F8" d="M196 26c.413-3.44-1.333-5.07-4.574-4.949-5.335.2-11.025-1.479-15.598 3.205-.813.833-3.098.315-4.7.278-4.71-.107-9.428-.885-13.24 3.284-2.437 2.663-6.611 1.492-9.511-2.781 1.573-2.086 3.095-3.574 4.618-5.063 1.7-.363 3.402-.725 5.789-.946 1.875-.53 3.065-1.2 4.254-1.871.74-.046 1.48-.091 2.763.084 1.106-.217 1.67-.655 2.235-1.093 8.002-.366 16.004-.733 24.55-.726 2.504 2.728 4.73 3.528 7.43 1.547 1.1.32 2.2.64 3.764 1.235.686.538.967.698 1.306.756 0 0 .456-.002.719.313.92.412 1.577.508 2.234.604.552.18 1.104.361 1.85 1.127.496 1.724.798 2.862 1.1 4-4.715.325-9.431.65-14.568.985z"/><path fill="#0504E9" d="M211.05 25.351c-.363-1.485-.665-2.623-.971-4.122.994-.277 1.994-.194 3.363-.047.558.297.774.502 1.211.79.355.403.566.657 1.036 1.002 1.285.813 2.362 1.492 3.755 2.257.511.304.716.512 1.095.856.27.832.379 1.517.113 2.557-1.134.355-1.893.356-2.653.357-2.295-1.101-4.591-2.202-6.948-3.65M152.637 20.015c-1.165 1.448-2.687 2.936-4.423 4.7-.854-.181-1.493-.638-2.173-1.416 2.052-1.295 4.145-2.269 6.596-3.284M199.764 16.703c-2.447 2.247-4.674 1.447-6.713-1.25 2.102.1 4.282.542 6.713 1.25M162.69 17.112c-.841.716-2.03 1.387-3.525 1.906.857-.75 2.017-1.35 3.525-1.906M167.735 16.127c-.264.46-.828.897-1.563 1.12.307-.523.785-.832 1.563-1.12M207.85 19.654c-.468.127-1.126.03-1.818-.36.52-.151 1.075-.007 1.819.36M204.958 18.751c-.21.151-.492-.01-.838-.483q.318-.224.838.483"/><path fill="#FEF3D2" d="M58 81.037c-1.036-3.055-2.073-6.11-3.105-9.558.188-.41.371-.428.864-.115.622 1.429.936 2.527 1.25 3.624.336 1.112.673 2.223 1.025 4.021-.001 1.134-.017 1.581-.033 2.028"/><path fill="#F4F5FB" d="M57.359 74.921c-.664-1.03-.978-2.128-1.324-3.57.832-.427 1.696-.511 2.56-.596-.295 1.367-.59 2.733-1.236 4.166M58.03 81.26c-.013-.67.003-1.117.028-1.898.81.522 1.612 1.379 1.86 2.435-.943.171-1.334.144-1.724.116 0 0-.135-.43-.164-.652"/><path fill="#FEF3D2" d="M54.163 66.878c-.483-.354-.734-.857-.926-1.653.425.305.791.904.926 1.653M58.161 82.218c.423-.277.814-.25 1.497-.207.155.55.018 1.085-.342 1.794-.544-.312-.865-.797-1.155-1.587M54.94 70.774c-.296-.2-.57-.693-.805-1.48.302.2.564.694.805 1.48"/><path fill="#0B0BDB" d="M136.593 236.096c.797.321 1.272.616 2.031.954.284.043.346.493.36.72-1.273-.184-2.56-.594-3.924-1.35.352-.348.782-.349 1.533-.324M134.53 235.085c.354.032.404.485.399.713-.844.041-1.683-.145-2.703-.608.53-.23 1.241-.184 2.305-.105"/><path fill="#F4F5FB" d="M56.947 248.967c-.004.229.013.468.029.706-.129-.162-.258-.324-.18-.579.207-.092.17-.116.15-.127"/><path fill="#0304F1" d="M32.965 213.662c-1.093 1.24-2.244 2.117-3.344 3.052-.85.723-2.469 1.76-2.328 2.245 1.79 6.159-2.876 6.66-7.035 7.97 3.333-8.283 7.012-16.596 10.663-24.922.445-1.015.742-2.095 1.149-3.518 1.07-1.39 2.098-2.406 3.74-3.465.807-.037.998-.03 1.19-.024l-6.752 14.46c.468.673 1.575 2.268 2.717 4.202"/><path fill="#0203F4" d="M37.366 195.077c-.558-.083-.75-.09-1.23-.119 1.833-3.32 3.954-6.616 6.415-9.964 3.939 2.907 6.82 6.207 6.154 12.093l-4.897-5.147-1.613 10.718-1.422.095c-1.014-2.533-2.027-5.066-3.407-7.676M49.575 172.995c1.009 3.23-2.867 10.176-6.228 10.997 1.695-3.648 3.791-7.293 6.228-10.997M50.704 171.141c.1.479-.036 1.125-.473 1.777-.12-.532.057-1.07.473-1.777"/><path fill="#0102F7" d="M217.915 29.376c.844-.376 1.603-.377 2.743-.382 2.387 2.373 4.394 4.751 6.425 7.482 0 .547-.026.742-.068 1.23-1.645.426-3.302.408-4.895.72-2.715.535-5.951 2.54-7.956 1.648-3.405-1.515-5.25-5.156-4.924-8.78 3.154-.567 5.872-1.054 8.675-1.918"/><path fill="#0304F1" d="M18.626 229.19c.95.861 1.66 1.961 2.377 3.41-1.092.69-2.19 1.03-4.014 1.597.631-2.152 1.015-3.46 1.637-5.008"/><path fill="#0404EF" d="M224.355 113.867c1.333-5.017 3.06-10.178 4.552-15.406.316-1.11-.05-2.514-.407-3.69-.386-1.27-1.13-2.43-2.021-4.258h5.124c1.214-5.585 2.381-10.954 3.922-16.426-1.274 8.624-2.921 17.352-4.619 26.471-2.114 4.642-4.178 8.892-6.55 13.31"/><path fill="#0102F5" d="M235.965 70.574c-3.402.836-4.27-1.657-4.381-4.029-.037-.795 2.268-1.7 3.868-2.562.428 2.046.49 4.1.513 6.59"/><path fill="#231096" d="M107.04 204.958c-.054-.441-.107-.883-.1-1.652 1.063.463 2.065 1.254 3.165 2.37-.372.312-.84.3-1.658.266-.349-.021-.377.001-.494-.223-.32-.497-.585-.676-.914-.76"/><path fill="#0505E9" d="M96.695 79.016c-.916 2.525-2.034 5.121-3.39 7.587-.904 1.644-2.147 3.102-3.396 4.866-1.125-.392-2.62-.913-4.493-1.654-.379-.22-.372-.675-.372-.675 2.631-2.451 5.262-4.902 7.986-7.673.378-.474.63-.67.999-1.097.411-.354.65-.549 1.017-.945.552-.245.948-.32 1.649-.41"/><path fill="#CD9DA4" d="M74.947 116.058s-.089-.476-.161-.708c-.01-.475.052-.72.448-1.251.504-.258.674-.228.827-.187-.019.011.012.039.05.302.313.457.587.65.875.816.013-.027-.045-.013-.015.272.335.466.64.648.918.8-.026-.031-.058.043-.034.362.724 1.066 1.424 1.813 2.124 2.56 0 0 .022-.024.028.268.324.445.64.6.958.753 0 0 .013-.05-.056.283.033.738.135 1.143.134 1.637-.102.088-.31.261-.603.147-1.342-1.115-2.39-2.116-3.438-3.117 0 0-.002.005-.025-.315-.692-1.088-1.361-1.855-2.03-2.622"/><path fill="#2A1195" d="M76.08 113.901a8 8 0 0 1-.761-.17c-.728-.937-1.207-1.794-1.605-3.085.08-.436.41-.742.687-.553.743 1.396 1.21 2.602 1.678 3.808"/><path fill="#2A1195" d="M71.637 107.691c.546-.177 1.141-.048 2.027.207.29.127.307.131.311.45.053.73.101 1.144.15 1.556 0 0-.33.306-.5.455-.759-.688-1.349-1.525-1.988-2.668"/><path fill="#E8B76D" d="M22.35 33.853c.278.879.504 1.957.147 2.785-2.49 5.77-5.1 11.489-8.027 17.323.169-7.44 2.364-14.323 7.88-20.108M23.492 32.88c.095.225-.04.516-.429.843-.235-.309-.084-.58.429-.843M24.915 104.35c2.023 3.398 4.048 7.167 6.049 11.323-1.449-1.871-2.873-4.13-4.572-6.577-.674-1.584-1.074-2.98-1.477-4.747M22.73 99.41c.726.817 1.46 1.987 2.125 3.545-.752-.805-1.435-1.998-2.126-3.545"/><path fill="#231096" d="M99.074 198.91a11 11 0 0 1-.093-1.636c.977.138 1.892.6 2.884 1.435.076.373-.066.554-.403.487-1.02-.14-1.704-.213-2.388-.286M106.94 202.698c-.372.355-.827.412-1.72.182-.746-.769-1.056-1.25-1.259-1.84l.322-.324c.858.561 1.715 1.122 2.656 1.982M103.151 199.842c.293.148.585.296 1.005.659.127.215-.088.43-.396.41-.562-.222-.767-.464-.843-.829z"/><path fill="#231096" d="M102.014 198.994c.422-.04.706.122 1.032.623.105.225-.05.386-.323.34-.518-.233-.735-.45-.924-.694 0 0 .142-.181.215-.27"/><path fill="#E8B76D" d="M33.934 121.431c4.598.607 4.98 4.552 5.87 8.52-.751-.303-1.465-1.013-2.428-1.886a69 69 0 0 1-3.442-6.634M30.952 116.394c.988 1.088 2.007 2.514 2.994 4.314-1.009-1.076-1.986-2.526-2.994-4.314"/><path fill="#E59E62" d="M215.646 153.033c.846 6.056-4.052 8.118-8.366 10.893 1.652-2.723 3.662-5.451 5.75-8.508.83-.975 1.585-1.62 2.616-2.385"/><path fill="#E8B76D" d="M29.494 26.787c-.108.378-.51.775-1.223 1.177.103-.383.516-.77 1.223-1.177M30.793 25.218c.04.432-.203.937-.733 1.504-.041-.435.205-.933.733-1.504M33.535 23.807c-.15.364-.605.748-1.385 1.116.143-.377.612-.736 1.385-1.116"/><path fill="#0405EE" d="m152 164.002 14.74-13.027c.787 1.904 1.488 3.6 2.234 5.655.045.359.054.383-.32.387-1.427 1.069-2.48 2.133-3.533 3.197-.52.83-1.04 1.659-2.06 2.797-.69.845-.88 1.383-1.07 1.92 0 0-.038.497-.067.744-.373.65-.717 1.053-1.187 1.691-.743.377-1.36.517-2.673.65-2.15-1.01-3.606-2.012-5.279-3.126-.487-.311-.676-.57-.785-.888"/><path fill="#0607E6" d="M165.435 160.129c.739-.98 1.792-2.043 3.217-3.099-.72 1.01-1.811 2.012-3.217 3.099M162.22 164.938c-.04-.544.15-1.082.596-1.766.223.27.19.69.122 1.419-.036.311-.49.353-.719.347"/><path fill="#CB9CA4" d="M82.557 181.833c-.395-.449-.59-.7-1.107-.969-1.054-1.01-1.883-1.926-3.037-2.915-.325-.073-.291-.006-.351-.283-.382-.434-.703-.591-1.036-.713-.01.036.059.007.022-.277-.36-.442-.684-.6-1.021-.724-.014.035.056.008.022-.275-.354-.448-.674-.612-1.001-.735-.007.04.065 0 .04-.292-.356-.457-.686-.622-1.007-.739.01.049.059-.036-.013-.331-.694-.775-1.316-1.255-1.974-1.706-.036.03.054.05-.007-.227-.383-.443-.705-.609-1.029-.733 0 .04.078.02.031-.267-.37-.447-.694-.608-1.03-.724-.014.044.068.002.042-.29a2 2 0 0 0-1.035-.719c-.013.045.071.007.053-.284-.342-.466-.664-.64-.998-.761-.011.052.08-.003.054-.295-.35-.46-.675-.628-1.03-.73-.032.067.086-.022.058-.31-.349-.454-.67-.621-.993-.724-.002.064.082-.033.059-.352-.773-1.043-1.523-1.766-2.276-2.469-.002.022.04.021-.03-.239-.36-.443-.65-.627-.949-.78-.01.029.049.007.005-.269a2.23 2.23 0 0 0-.984-.732c-.002.036.03-.029-.026-.344-.38-.582-.702-.848-1.025-1.115-.357-.449-.713-.898-1.375-1.777-1.118-1.263-1.93-2.094-2.743-2.926-.051-.178-.132-.34-.36-.543-.304-.431-.492-.808-.952-1.35-.522-.671-.772-1.178-1.284-1.804-.312-.46-.465-.748-.94-1.098-.263-.465-.418-.752-.907-1.093-.284-.442-.432-.726-.864-1.102-.78-.954-1.36-1.771-2.2-2.746-.29-.501-.424-.798-.87-1.182-.478-.618-.748-1.102-1.256-1.736a25 25 0 0 1-2.262-3.808c1.4.659 3.108 1.4 4.234 2.662 10.657 11.944 21.14 24.044 31.838 35.95 4.473 4.978 9.343 9.599 13.972 14.743-.425.276-.79.19-1.426.01-.65-.464-1.029-.834-1.643-1.33-1.265-1.142-2.293-2.16-3.607-3.306-.647-.52-1.008-.912-1.595-1.458-1.448-1.322-2.67-2.49-4.187-3.783"/><path fill="#E8B76D" d="M40.904 132.46a16.3 16.3 0 0 1 3.85 4.036c-.396.486-.579.543-.76.6-.168-.062-.335-.123-.755-.27-.322-.357-.423-.614-.674-1.03-.617-1.12-1.116-2.069-1.661-3.336"/><path fill="#CB9CA4" d="M44.056 137.338c.12-.3.302-.356.761-.487.286.143.294.36.227.897-.358.156-.641-.006-.988-.41"/><path fill="#0E0BDC" d="M84.848 89.147c.196-.007.19.448.204.676-.009.655-.033 1.08-.288 1.712-.502-.006-.693-.275-.804-.6.047-.376.093-.751.23-1.394.09-.267.463-.387.658-.394"/><path fill="#E8B76D" d="M40.038 131.242q.3-.067.798.617-.3.068-.798-.617"/><path fill="#0405F7" d="M137.994 172.022c2.737-1.16 5.431-2.446 8.238-3.403.793-.27 1.917.406 2.882.674 1.1.305 2.192.64 3.835.97.759.305.971.603 1.184.9 0 0-.07.398-.495.614-1.814 1.913-3.202 3.61-4.591 5.306 0 0-.093.414-.423.667-.765.568-1.2.883-1.635 1.199-.433.01-.867.022-1.645-.372a126 126 0 0 0-6.85-5.319c-.193-.035-.575-.124-.548-.402.034-.463.04-.648.048-.834"/><path fill="#0607E6" d="M154.458 171.093c-.538-.227-.75-.525-1.201-.959-.248-.884-.257-1.632-.266-3.088l.01-2.044c1.457 1.002 2.913 2.005 4.744 3.036.33.44.285.85.2 1.566-1.079.677-2.12 1.047-3.487 1.489"/><path fill="#0806DC" d="M149.364 177.065c1.072-1.678 2.46-3.375 4.218-5.094.374.416.38.856.36 1.623-.638.802-1.25 1.278-1.929 2.058-.357.441-.604.634-.936 1.082-.552.236-.974.275-1.713.331M138.687 173.294c2.104 1.626 4.208 3.252 6.334 5.235-.463.383-.95.41-1.795.507-.359.07-.32.032-.307-.291-1.401-2.033-2.816-3.742-4.232-5.451M147.307 178.971c.117-.338.552-.653 1.26-1.017.272-.048.344.442.336.69-.431.28-.854.315-1.596.327"/><path fill="#0505E9" d="M83.682 90.977c.389.283.58.552 1.071.878.174 2.17.053 4.102-2.721 1.575-.018-.73.042-1.131.2-1.818.456-.387.814-.49 1.45-.635"/><path fill="#0D07D5" d="M87.016 124.99c1.971 1.436 4.127 2.68 5.862 4.36 1.685 1.633 2.94 3.711 4.78 5.983 3.375 3.483 6.352 6.577 9.328 9.67.006.453.012.906-.364 1.707-1.11.368-1.838.388-2.567.408-3.012-2.81-6.023-5.62-9.12-9.122-2.046-2.967-4.005-5.242-6.014-7.84-.37-.594-.69-.864-.974-1.132.037.002.022.074-.048-.188-.363-.453-.656-.643-.922-.834.028 0 .004.05.046-.332.025-1.147.009-1.913-.007-2.68"/><path fill="#CFA4A2" d="M119.998 164.044c-3.644-3.426-7.289-6.852-10.634-10.605 1.815.763 3.332 1.852 4.92 3.045.07.102.315.216.315.216s.261-.066.311.265c.403.563.756.795 1.1 1.028-.009 0-.004-.017.06.298 1.064 1.092 2.064 1.868 3.065 2.643 0 0-.066.052.035.286.341.54.582.849.826 1.434.003.649.003 1.02.002 1.39"/><path fill="#301B95" d="M114.212 156.38c-1.516-1.089-3.033-2.178-4.898-3.286-1.956-1.788-3.563-3.558-5.215-5.652.685-.344 1.413-.364 2.509-.393 1.126.606 1.886 1.22 3.043 2.213.699.836 1 1.294 1.405 1.98.376.415.65.6.933.771.011-.013-.016.009.087.235.306.507.575.693 1.014.998.29.481.536.673.897 1.042.135.408.216.562.293 1.06-.026.575-.047.804-.068 1.033"/><path fill="#CD9DA4" d="M88.97 130.48c1.96 2.274 3.92 4.549 5.896 7.152a75.5 75.5 0 0 1-8.09-8.014c.05-.446.259-.652.489-.596s.704.076.704.076.015-.072.046.237c.339.587.647.866.956 1.145"/><path fill="#E8B76D" d="M77.002 119.366c1.048.63 2.096 1.63 3.51 3.083.421 1.144.476 1.836.532 2.528-1.348-1.746-2.695-3.493-4.042-5.611"/><path fill="#CD9DA4" d="M81.084 125.192c-.096-.907-.15-1.599-.278-2.628-.072-.338.135-.51.518-.44a27.8 27.8 0 0 1 3.753 4.799l-.402.4a34 34 0 0 0-1.606-.362c-.483-.082-.884-.099-.884-.099s-.05-.03-.176-.237c-.312-.462-.55-.655-.84-.785 0 0-.044-.434-.085-.648"/><path fill="#E8B76D" d="M74.98 116.375q.956.674 2 2.305-.955-.675-2-2.305"/><path fill="#D5A3A1" d="M120.18 164.112c-.181-.439-.181-.81.018-1.437.199-.257.597-.175.674.021.268.406.414.644.515.91 0 0-.332.345-.497.522s-.53.051-.71-.016"/><path fill="#E8B76D" d="M82.209 127.047c-.024-.185.377-.168.575-.136-.052.128-.302.224-.575.136"/><path fill="#CD9DA4" d="M85.629 128.382c-.294-.152-.527-.369-.827-.855-.127-.203.141-.47.496-.489.617.21.77.498.691.969z"/><path fill="#E8B76D" d="M81.22 126.083c.239-.113.477.08.759.545-.263.18-.53.01-.759-.545"/><path fill="#CD9DA4" d="M86.719 129.272c-.386-.053-.624-.255-.956-.697-.134-.193.106-.443.442-.513s.776-.01.776-.01.024-.05-.009.193c-.032.244.063.721.063.721s-.21.206-.316.306"/><path fill="#CB9CA4" d="M95.96 192.742c-.13.299-.299.316-.724.306-.293-.191-.33-.354-.336-.766.361-.107.69.036 1.06.46"/><path fill="#2A1492" d="M121.686 163.755c-.4-.415-.546-.653-.755-1.439.007-.83.032-1.083.057-1.338 4.045 3.446 8.09 6.892 12.072 10.69-3.734-2.353-7.405-5.058-11.374-7.913M138.494 173.258c1.609 1.745 3.024 3.454 4.442 5.507-3.253-1.807-6.51-3.957-9.862-6.434.644-.339 1.382-.352 2.66-.076 1.088.484 1.637.682 2.185.879 0 0 .382.089.575.124"/><path fill="#0504F3" d="M110.953 151.013c-.302-.457-.603-.915-1.039-1.61 2.035-1.365 3.574-2.004 5.697.707 1.602 2.046 5.082 2.621 8.853 4.375-1.165 1.47-2.368 2.986-4.205 4.494-.809-.017-.983-.026-1.18-.034-.023 0-.05-.038-.16-.239-.297-.45-.54-.628-.855-.746-.02-.01-.034-.055-.106-.203-.323-.419-.602-.44-1.187-.148-.441.164-.603.265-.765.367 0 0-.005.018-.056-.299-.397-.558-.744-.8-1.09-1.043l-.261.066s-.244-.114-.316-.216c-.05-.332-.029-.561.106-1.27-.077-.712-.266-.947-.456-1.181-.307-.114-.552-.306-.943-1.016-.407-.728-.677-.913-1.017-.995 0 0 .027-.022-.086-.239-.387-.4-.66-.585-.934-.77"/><path fill="#0304F2" d="M107.305 144.949c-3.295-3.039-6.272-6.133-9.298-9.571 2.754.408 5.556 1.16 8.68 2 .319 2.556.627 5.036.618 7.57"/><path fill="#0E0BDC" d="M74.4 110.093c-.324-.601-.372-1.014-.427-1.739 1.662-.52 3.33-.729 4.454-.87.645 2.684 1.304 5.425 1.353 8.356-1.056.228-1.503.267-1.949.305 0 0 .032-.074.012-.314-.314-.431-.608-.623-.902-.814 0 0 .058-.014.015-.251-.323-.43-.603-.623-.883-.815 0 0-.03-.028-.012-.039-.45-1.217-.917-2.423-1.66-3.819"/><path fill="#2A1195" d="M87.023 127.67c-.042.381-.482.322-.698.267-.257-.401-.41-.689-.894-1.033-1.388-1.647-2.556-3.178-4.005-4.869-.382-.564-.484-.97-.531-1.684.651-.172 1.249-.036 2.123.626A15 15 0 0 0 85 122.99c.115.311.3.572.867 1.133.517.631.793.803 1.138.864 0 0-.005.012.003.008.024.762.04 1.528.015 2.675"/><path fill="#0404EF" d="M217.266 110.82c-.335-1.086-.324-2.077-.314-3.069l3.778.532.094 1.423c-1.071.403-2.142.806-3.558 1.115"/><path fill="#0405F7" d="M152.785 164.89c.214.557.21 1.003.2 1.783-1.127.235-2.247.135-4.462-.06 1.387-1.258 2.09-1.896 3.135-2.572.451.279.64.538 1.127.85"/><path fill="#0202F8" d="m196 26-1.669 2.608-1.142-1.178c.7-.471 1.401-.943 2.457-1.422z"/><path fill="#301B95" d="M116.07 158.291c.098-.417.26-.518.927-.54.68.105.857.13 1.033.154 0 0 .014.045.114.278.288.515.55.678.885.724 0 0 .027.038.107.324.2.441.318.595.436.75-.039.174-.078.348-.277.738-1.16-.56-2.161-1.336-3.225-2.428"/><path fill="#2A1195" d="M77.855 116.464c.422-.357.869-.396 1.65-.435.438.75.542 1.503.56 2.625-.786-.377-1.486-1.124-2.21-2.19"/><path fill="#0E0BDC" d="M84.967 122.68c-.535-.186-1.104-.682-1.734-1.462.526.195 1.114.674 1.734 1.463"/><path fill="#301B95" d="M120.672 160.888c.29.345.266.599.182 1.233-.059.379-.457.297-.66.276-.442-.328-.683-.636-1.025-1.22.329-.31.758-.345 1.503-.289"/><path fill="#0806DC" d="M137.946 172.856c-.575.08-1.124-.117-1.841-.56.29-.261.747-.276 1.546-.283.336.195.329.38.295.843"/><path fill="#0D07D5" d="M86.898 124.765q-.358.243-.822-.521c.236-.154.508.022.822.52"/><path fill="#2A1195" d="M80.96 119.754c-.312.137-.63-.017-.967-.455.307-.134.635.015.968.455"/><path fill="#0D07D5" d="M119.691 159.837c-.237-.01-.356-.165-.532-.605.117-.279.291-.27.727-.24.167.258.055.484-.195.845"/><path fill="#0F0ED4" d="M71.934 174.067c-2.55-1.82-5.099-3.641-7.82-6.058-.823-.752-1.473-.906-2.124-1.06-.169-.001-.338-.002-.993.007-.486.009-.952.013-.952.013s-.015.004-.012-.008c.08-1.784.156-3.556.784-5.627.784-.331 1.016-.362 1.248-.394 0 0-.032.065.034.29.365.4.665.574.964.747 0 0-.058.022.018.251.368.413.66.598.952.782 0 0-.042 0-.038.32.769 1.029 1.533 1.738 2.297 2.447 0 0-.084.097-.052.32.351.39.671.557.991.725 0 0-.118.09-.05.306.386.39.703.564 1.02.738 0 0-.091.055-.036.279.361.408.667.592.972.776 0 0-.084.038-.006.26.384.396.69.57.996.744 0 0-.082.042 0 .264.392.396.7.57 1.01.744 0 0-.08.021 0 .246.39.398.7.572 1.01.746 0 0-.09-.022-.105.287.02.758.054 1.208.04 1.707z"/><path fill="#231096" d="M56.847 155.224c.831.415 1.644 1.246 2.565 2.416-.788-.441-1.686-1.22-2.565-2.416M62.009 160.625c-.176.347-.408.378-.993.391-.306-.267-.259-.517-.121-1.136.412-.103.735.163 1.114.745"/><path fill="#0F0ED4" d="M78.115 177.851c-.021.46-.07.944-.129 1.794-4.182 1.116-5.06-1.857-5.984-5.217-.068-.361.03-.46.412-.47.83-.033 1.278-.058 1.726-.083 0 0-.05.085.006.305.359.4.663.58.967.761 0 0-.072.042.005.26.373.4.67.579.965.759 0 0-.07.027.017.25.386.4.685.575.985.75 0 0-.07.029.025.25.4.393.706.563 1.012.733 0 0-.034-.067-.007-.092"/><path fill="#0302F8" d="M57.611 203.008c-.744 2.887-1.876 5.781-3.31 8.834-.099-3.15-4.183-7.994 3.31-8.834"/><path fill="#0303F0" d="M62.156 167.2c.485-.097 1.135.057 1.815.501-.53.11-1.09-.07-1.815-.5"/><path fill="#0302F8" d="M49.622 211.548c.435.113.7.39.964.667l-.344.328c-.264-.277-.528-.554-.62-.995M62.955 204.68q-.888-.202-1.91-1.36.888.202 1.91 1.36"/><path fill="#0303F0" d="M60.048 167.218c-.003-.25.463-.253.695-.253.077.431-.079.862-.234 1.293-.153-.263-.306-.527-.461-1.04"/><path fill="#0F0ED4" d="M78.096 180.242c.237-.15.501.03.783.544q-.345.198-.783-.544M101.462 199.196c.526.312.743.528 1.182.842.349.409.554.651 1.01.98.51.612.82 1.093 1.22 1.85-3.613 2.013-4.454-1.018-5.789-3.603.673-.282 1.357-.21 2.377-.07M107.134 205.187c.234-.144.5.035.81.526-.239.16-.512-.013-.81-.526"/><path fill="#0304F1" d="m35 217-2.6 4.823-1.568-1.122c1.155-1.207 2.31-2.414 3.817-3.662z"/><path fill="#2A1195" d="M76.112 114.214c.241-.07.521.122.831.578-.245.072-.519-.121-.831-.578M76.971 115.302c.264-.094.558.098.898.56-.258.088-.563-.094-.898-.56"/><path fill="#231096" d="M66.269 165.458c-.741-.39-1.505-1.099-2.271-2.149.748.383 1.498 1.106 2.27 2.149M74.068 173.58c-.376.32-.824.345-1.605.33-.367-.49-.402-.94-.385-1.728.674.143 1.296.623 1.99 1.398M71.09 170.647c-.262.112-.57-.062-.95-.502.255-.106.578.055.95.502M63.963 162.75q-.334.113-.873-.551.334-.114.873.551M67.203 166.535q-.438.18-.961-.503.437-.18.961.503M68.175 167.574c-.291.118-.608-.056-.962-.513.287-.115.612.053.962.513M69.119 168.63c-.287.107-.593-.077-.942-.537.278-.103.6.071.942.537M70.1 169.633c-.28.118-.585-.056-.957-.496.267-.11.6.047.958.496M63.02 161.701c-.256.103-.556-.07-.92-.506.25-.098.562.066.92.506M72.087 171.647c-.25.104-.56-.07-.95-.509.245-.1.567.066.95.509M75.087 174.65c-.278.11-.582-.07-.95-.519.265-.103.595.062.95.519M76.049 175.677c-.262.103-.558-.077-.924-.516.25-.096.57.068.924.516M77.048 176.676c-.263.109-.562-.066-.935-.5.25-.1.574.058.935.5M78.062 177.666c-.246.107-.552-.063-.941-.491.238-.1.56.057.94.491"/><path fill="#2A1195" d="M87.265 129.022c-.23-.056-.325-.533-.32-.777.298-.052.59.138.954.591.07.262-.404.242-.634.186M88.921 130.156c-.259.045-.567-.234-.943-.823.252-.041.573.23.943.823"/><path fill="#301B95" d="M114.91 156.965c.296-.089.643.154 1.049.712-.293.083-.646-.15-1.049-.712"/><path fill="#0D07D5" d="M111.056 151.243q.256-.067.82.554-.256.067-.82-.554M112.076 152.248q.356-.216.808.557-.35.204-.808-.557M113.987 154.288c.136-.02.325.214.406.582-.19-.02-.27-.174-.406-.582M117.958 157.757c-.104.124-.28.099-.682-.068.08-.372.359-.35.682.068M118.92 158.706c-.226.155-.488-.008-.755-.512.214-.116.457.062.755.512"/></svg>